%TF.GenerationSoftware,KiCad,Pcbnew,(5.99.0-1734-gfc9c75f9e)*%
%TF.CreationDate,2020-06-08T22:25:13+02:00*%
%TF.ProjectId,poldet32k-v2-autorouted,706f6c64-6574-4333-926b-2d76322d6175,rev?*%
%TF.SameCoordinates,Original*%
%TF.FileFunction,Copper,L2,Bot*%
%TF.FilePolarity,Positive*%
%FSLAX46Y46*%
G04 Gerber Fmt 4.6, Leading zero omitted, Abs format (unit mm)*
G04 Created by KiCad (PCBNEW (5.99.0-1734-gfc9c75f9e)) date 2020-06-08 22:25:13*
%MOMM*%
%LPD*%
G01*
G04 APERTURE LIST*
%TA.AperFunction,ComponentPad*%
%ADD10C,0.800000*%
%TD*%
%TA.AperFunction,ViaPad*%
%ADD11C,0.800000*%
%TD*%
%TA.AperFunction,Conductor*%
%ADD12C,0.250000*%
%TD*%
%TA.AperFunction,Conductor*%
%ADD13C,0.500000*%
%TD*%
%TA.AperFunction,Conductor*%
%ADD14C,0.254000*%
%TD*%
G04 APERTURE END LIST*
%TO.C,J1*%
G36*
X125132000Y-96805000D02*
G01*
X124732000Y-96805000D01*
X124732000Y-90705000D01*
X125132000Y-90705000D01*
X125132000Y-96805000D01*
G37*
G36*
X171632000Y-96805000D02*
G01*
X171232000Y-96805000D01*
X171232000Y-90705000D01*
X171632000Y-90705000D01*
X171632000Y-96805000D01*
G37*
G36*
X170132000Y-96805000D02*
G01*
X169732000Y-96805000D01*
X169732000Y-90705000D01*
X170132000Y-90705000D01*
X170132000Y-96805000D01*
G37*
G36*
X168632000Y-96805000D02*
G01*
X168232000Y-96805000D01*
X168232000Y-90705000D01*
X168632000Y-90705000D01*
X168632000Y-96805000D01*
G37*
G36*
X167132000Y-96805000D02*
G01*
X166732000Y-96805000D01*
X166732000Y-90705000D01*
X167132000Y-90705000D01*
X167132000Y-96805000D01*
G37*
G36*
X165632000Y-96805000D02*
G01*
X165232000Y-96805000D01*
X165232000Y-90705000D01*
X165632000Y-90705000D01*
X165632000Y-96805000D01*
G37*
G36*
X164132000Y-96805000D02*
G01*
X163732000Y-96805000D01*
X163732000Y-90705000D01*
X164132000Y-90705000D01*
X164132000Y-96805000D01*
G37*
G36*
X162632000Y-96805000D02*
G01*
X162232000Y-96805000D01*
X162232000Y-90705000D01*
X162632000Y-90705000D01*
X162632000Y-96805000D01*
G37*
G36*
X161132000Y-96805000D02*
G01*
X160732000Y-96805000D01*
X160732000Y-90705000D01*
X161132000Y-90705000D01*
X161132000Y-96805000D01*
G37*
G36*
X159632000Y-96805000D02*
G01*
X159232000Y-96805000D01*
X159232000Y-90705000D01*
X159632000Y-90705000D01*
X159632000Y-96805000D01*
G37*
G36*
X158132000Y-96805000D02*
G01*
X157732000Y-96805000D01*
X157732000Y-90705000D01*
X158132000Y-90705000D01*
X158132000Y-96805000D01*
G37*
G36*
X156632000Y-96805000D02*
G01*
X156232000Y-96805000D01*
X156232000Y-90705000D01*
X156632000Y-90705000D01*
X156632000Y-96805000D01*
G37*
G36*
X155132000Y-96805000D02*
G01*
X154732000Y-96805000D01*
X154732000Y-90705000D01*
X155132000Y-90705000D01*
X155132000Y-96805000D01*
G37*
G36*
X153632000Y-96805000D02*
G01*
X153232000Y-96805000D01*
X153232000Y-90705000D01*
X153632000Y-90705000D01*
X153632000Y-96805000D01*
G37*
G36*
X152132000Y-96805000D02*
G01*
X151732000Y-96805000D01*
X151732000Y-90705000D01*
X152132000Y-90705000D01*
X152132000Y-96805000D01*
G37*
G36*
X150632000Y-96805000D02*
G01*
X150232000Y-96805000D01*
X150232000Y-90705000D01*
X150632000Y-90705000D01*
X150632000Y-96805000D01*
G37*
G36*
X149132000Y-96805000D02*
G01*
X148732000Y-96805000D01*
X148732000Y-90705000D01*
X149132000Y-90705000D01*
X149132000Y-96805000D01*
G37*
G36*
X147632000Y-96805000D02*
G01*
X147232000Y-96805000D01*
X147232000Y-90705000D01*
X147632000Y-90705000D01*
X147632000Y-96805000D01*
G37*
G36*
X146132000Y-96805000D02*
G01*
X145732000Y-96805000D01*
X145732000Y-90705000D01*
X146132000Y-90705000D01*
X146132000Y-96805000D01*
G37*
G36*
X144632000Y-96805000D02*
G01*
X144232000Y-96805000D01*
X144232000Y-90705000D01*
X144632000Y-90705000D01*
X144632000Y-96805000D01*
G37*
G36*
X143132000Y-96805000D02*
G01*
X142732000Y-96805000D01*
X142732000Y-90705000D01*
X143132000Y-90705000D01*
X143132000Y-96805000D01*
G37*
G36*
X141632000Y-96805000D02*
G01*
X141232000Y-96805000D01*
X141232000Y-90705000D01*
X141632000Y-90705000D01*
X141632000Y-96805000D01*
G37*
G36*
X140132000Y-96805000D02*
G01*
X139732000Y-96805000D01*
X139732000Y-90705000D01*
X140132000Y-90705000D01*
X140132000Y-96805000D01*
G37*
G36*
X138632000Y-96805000D02*
G01*
X138232000Y-96805000D01*
X138232000Y-90705000D01*
X138632000Y-90705000D01*
X138632000Y-96805000D01*
G37*
G36*
X137132000Y-96805000D02*
G01*
X136732000Y-96805000D01*
X136732000Y-90705000D01*
X137132000Y-90705000D01*
X137132000Y-96805000D01*
G37*
G36*
X135632000Y-96805000D02*
G01*
X135232000Y-96805000D01*
X135232000Y-90705000D01*
X135632000Y-90705000D01*
X135632000Y-96805000D01*
G37*
G36*
X134132000Y-96805000D02*
G01*
X133732000Y-96805000D01*
X133732000Y-90705000D01*
X134132000Y-90705000D01*
X134132000Y-96805000D01*
G37*
G36*
X132632000Y-96805000D02*
G01*
X132232000Y-96805000D01*
X132232000Y-90705000D01*
X132632000Y-90705000D01*
X132632000Y-96805000D01*
G37*
G36*
X131132000Y-96805000D02*
G01*
X130732000Y-96805000D01*
X130732000Y-90705000D01*
X131132000Y-90705000D01*
X131132000Y-96805000D01*
G37*
G36*
X129632000Y-96805000D02*
G01*
X129232000Y-96805000D01*
X129232000Y-90705000D01*
X129632000Y-90705000D01*
X129632000Y-96805000D01*
G37*
G36*
X128132000Y-96805000D02*
G01*
X127732000Y-96805000D01*
X127732000Y-90705000D01*
X128132000Y-90705000D01*
X128132000Y-96805000D01*
G37*
G36*
X126632000Y-96805000D02*
G01*
X126232000Y-96805000D01*
X126232000Y-90705000D01*
X126632000Y-90705000D01*
X126632000Y-96805000D01*
G37*
%TD*%
D10*
%TO.P,J1,31*%
%TO.N,AUDIO_IN*%
X169932000Y-90405000D03*
%TO.P,J1,30*%
%TO.N,\u002ARESET/CS2*%
X168432000Y-90405000D03*
%TO.P,J1,29*%
%TO.N,D7*%
X166932000Y-90405000D03*
%TO.P,J1,28*%
%TO.N,D6*%
X165432000Y-90405000D03*
%TO.P,J1,27*%
%TO.N,D5*%
X163932000Y-90405000D03*
%TO.P,J1,26*%
%TO.N,D4*%
X162432000Y-90405000D03*
%TO.P,J1,25*%
%TO.N,D3*%
X160932000Y-90405000D03*
%TO.P,J1,24*%
%TO.N,D2*%
X159432000Y-90405000D03*
%TO.P,J1,23*%
%TO.N,D1*%
X157932000Y-90405000D03*
%TO.P,J1,22*%
%TO.N,D0*%
X156432000Y-90405000D03*
%TO.P,J1,21*%
%TO.N,A15*%
X154932000Y-90405000D03*
%TO.P,J1,20*%
%TO.N,A14*%
X153432000Y-90405000D03*
%TO.P,J1,19*%
%TO.N,A13*%
X151932000Y-90405000D03*
%TO.P,J1,18*%
%TO.N,A12*%
X150432000Y-90405000D03*
%TO.P,J1,17*%
%TO.N,A11*%
X148932000Y-90405000D03*
%TO.P,J1,16*%
%TO.N,A10*%
X147432000Y-90405000D03*
%TO.P,J1,15*%
%TO.N,A9*%
X145932000Y-90405000D03*
%TO.P,J1,14*%
%TO.N,A8*%
X144432000Y-90405000D03*
%TO.P,J1,13*%
%TO.N,A7*%
X142932000Y-90405000D03*
%TO.P,J1,12*%
%TO.N,A6*%
X141432000Y-90405000D03*
%TO.P,J1,11*%
%TO.N,A5*%
X139932000Y-90405000D03*
%TO.P,J1,10*%
%TO.N,A4*%
X138432000Y-90405000D03*
%TO.P,J1,9*%
%TO.N,A3*%
X136932000Y-90405000D03*
%TO.P,J1,8*%
%TO.N,A2*%
X135432000Y-90405000D03*
%TO.P,J1,7*%
%TO.N,A1*%
X133932000Y-90405000D03*
%TO.P,J1,6*%
%TO.N,A0*%
X132432000Y-90405000D03*
%TO.P,J1,5*%
%TO.N,\u002AMREQ/CS*%
X130932000Y-90405000D03*
%TO.P,J1,4*%
%TO.N,\u002ARD*%
X129432000Y-90405000D03*
%TO.P,J1,3*%
%TO.N,\u002AWR*%
X127932000Y-90405000D03*
%TO.P,J1,32*%
%TO.N,GND*%
X171432000Y-90405000D03*
%TO.P,J1,1*%
%TO.N,5V*%
X124932000Y-90405000D03*
%TO.P,J1,2*%
%TO.N,CLK*%
X126432000Y-90405000D03*
%TD*%
D11*
%TO.N,GND*%
X160782000Y-88392000D03*
X161417000Y-72390000D03*
%TO.N,A15*%
X161160100Y-82818300D03*
%TO.N,A14*%
X169429900Y-74182400D03*
%TO.N,A13*%
X165572400Y-75551800D03*
%TO.N,A12*%
X158572100Y-82567100D03*
%TO.N,A11*%
X161021000Y-80496700D03*
%TO.N,A9*%
X160194300Y-79601400D03*
%TO.N,A8*%
X163409300Y-77898400D03*
%TO.N,A7*%
X154262600Y-75421600D03*
%TO.N,A6*%
X154427100Y-76619600D03*
%TO.N,A5*%
X141497000Y-83437000D03*
%TO.N,A4*%
X140235600Y-83662300D03*
%TO.N,A3*%
X151335800Y-76758400D03*
%TO.N,A0*%
X137980700Y-88479200D03*
%TO.N,GND*%
X171831000Y-84836000D03*
X171831000Y-81534000D03*
X171831000Y-74549000D03*
X171704000Y-71120000D03*
X171704000Y-67945000D03*
X140970000Y-68199000D03*
X135636000Y-68326000D03*
X129667000Y-68326000D03*
X124714000Y-68453000D03*
X124714000Y-73152000D03*
X137541000Y-74422000D03*
X134112000Y-77597000D03*
X131191000Y-80391000D03*
X129159000Y-82423000D03*
%TO.N,5V*%
X163322000Y-74549000D03*
X125730000Y-88519000D03*
X125730000Y-87630000D03*
X126746000Y-87630000D03*
%TD*%
D12*
%TO.N,A15*%
X161160100Y-84176900D02*
X161160100Y-82818300D01*
X154932000Y-90405000D02*
X161160100Y-84176900D01*
%TO.N,A14*%
X153432000Y-89588000D02*
X153432000Y-90405000D01*
X160879400Y-82140600D02*
X153432000Y-89588000D01*
X161471700Y-82140600D02*
X160879400Y-82140600D01*
X169429900Y-74182400D02*
X161471700Y-82140600D01*
%TO.N,A13*%
X160599100Y-81737900D02*
X151932000Y-90405000D01*
X160738300Y-81737900D02*
X160599100Y-81737900D01*
X165572400Y-76903800D02*
X160738300Y-81737900D01*
X165572400Y-75551800D02*
X165572400Y-76903800D01*
%TO.N,A12*%
X158269900Y-82567100D02*
X158572100Y-82567100D01*
X150432000Y-90405000D02*
X158269900Y-82567100D01*
%TO.N,A11*%
X158840300Y-80496700D02*
X161021000Y-80496700D01*
X148932000Y-90405000D02*
X158840300Y-80496700D01*
%TO.N,A9*%
X158649900Y-79601400D02*
X160194300Y-79601400D01*
X148524100Y-89727200D02*
X158649900Y-79601400D01*
X146609800Y-89727200D02*
X148524100Y-89727200D01*
X145932000Y-90405000D02*
X146609800Y-89727200D01*
%TO.N,A8*%
X159670100Y-77898400D02*
X163409300Y-77898400D01*
X148741100Y-88827400D02*
X159670100Y-77898400D01*
X146009600Y-88827400D02*
X148741100Y-88827400D01*
X144432000Y-90405000D02*
X146009600Y-88827400D01*
%TO.N,A7*%
X155104800Y-76263800D02*
X154262600Y-75421600D01*
X155104800Y-81880200D02*
X155104800Y-76263800D01*
X149260900Y-87724100D02*
X155104800Y-81880200D01*
X145612900Y-87724100D02*
X149260900Y-87724100D01*
X142932000Y-90405000D02*
X145612900Y-87724100D01*
%TO.N,A6*%
X154427100Y-81988200D02*
X154427100Y-76619600D01*
X149563900Y-86851400D02*
X154427100Y-81988200D01*
X144985600Y-86851400D02*
X149563900Y-86851400D01*
X141432000Y-90405000D02*
X144985600Y-86851400D01*
%TO.N,A5*%
X141497000Y-88840000D02*
X141497000Y-83437000D01*
X139932000Y-90405000D02*
X141497000Y-88840000D01*
%TO.N,A4*%
X140235600Y-88601400D02*
X140235600Y-83662300D01*
X138432000Y-90405000D02*
X140235600Y-88601400D01*
%TO.N,A3*%
X150689800Y-76112400D02*
X151335800Y-76758400D01*
X146196100Y-76112400D02*
X150689800Y-76112400D01*
X138697200Y-83611300D02*
X146196100Y-76112400D01*
X138697200Y-88776200D02*
X138697200Y-83611300D01*
X137068400Y-90405000D02*
X138697200Y-88776200D01*
X136932000Y-90405000D02*
X137068400Y-90405000D01*
%TO.N,A0*%
X134357800Y-88479200D02*
X137980700Y-88479200D01*
X132432000Y-90405000D02*
X134357800Y-88479200D01*
%TO.N,GND*%
X171432000Y-87873300D02*
X171432000Y-90405000D01*
D13*
%TO.N,5V*%
X140462000Y-74549000D02*
X163322000Y-74549000D01*
X127381000Y-87630000D02*
X140462000Y-74549000D01*
X126746000Y-87630000D02*
X127381000Y-87630000D01*
%TD*%
%TO.N,GND*%
G36*
X144348000Y-66957889D02*
G01*
X144343463Y-66988427D01*
X144342779Y-66997757D01*
X144342789Y-67008894D01*
X144342791Y-67009274D01*
X144343135Y-67058626D01*
X144343835Y-67067566D01*
X144344244Y-67070287D01*
X144343995Y-67073224D01*
X144343897Y-67082574D01*
X144344606Y-67093690D01*
X144344631Y-67094076D01*
X144369879Y-67455127D01*
X144371138Y-67464004D01*
X144375015Y-67482011D01*
X144375519Y-67500624D01*
X144376465Y-67509935D01*
X144378410Y-67520902D01*
X144378477Y-67521273D01*
X144443811Y-67877257D01*
X144446052Y-67885938D01*
X144451914Y-67903405D01*
X144454488Y-67921837D01*
X144456464Y-67930980D01*
X144459619Y-67941663D01*
X144459729Y-67942029D01*
X144564338Y-68288512D01*
X144567533Y-68296889D01*
X144575301Y-68313586D01*
X144579916Y-68331624D01*
X144582899Y-68340488D01*
X144587225Y-68350751D01*
X144587374Y-68351103D01*
X144729953Y-68683768D01*
X144734061Y-68691735D01*
X144743647Y-68707470D01*
X144750244Y-68724881D01*
X144754195Y-68733355D01*
X144759637Y-68743072D01*
X144759826Y-68743407D01*
X144938600Y-69058105D01*
X144943571Y-69065566D01*
X144954847Y-69080128D01*
X144963343Y-69096695D01*
X144968217Y-69104680D01*
X144974710Y-69113730D01*
X144974932Y-69114038D01*
X145187669Y-69406846D01*
X145193441Y-69413706D01*
X145206270Y-69426922D01*
X145216559Y-69442437D01*
X145222287Y-69449821D01*
X145229745Y-69458092D01*
X145230007Y-69458380D01*
X145474060Y-69725652D01*
X145480560Y-69731826D01*
X145494788Y-69743534D01*
X145506739Y-69757802D01*
X145513254Y-69764502D01*
X145521589Y-69771890D01*
X145521881Y-69772147D01*
X145794206Y-70010549D01*
X145801354Y-70015960D01*
X145816794Y-70026006D01*
X145830266Y-70038858D01*
X145837499Y-70044798D01*
X145846606Y-70051208D01*
X145846914Y-70051424D01*
X146144112Y-70257982D01*
X146151820Y-70262563D01*
X146168279Y-70270823D01*
X146183101Y-70282094D01*
X146190950Y-70287191D01*
X146200715Y-70292547D01*
X146201047Y-70292728D01*
X146519419Y-70464871D01*
X146527588Y-70468564D01*
X146544867Y-70474938D01*
X146560852Y-70484486D01*
X146569216Y-70488674D01*
X146579517Y-70492909D01*
X146579871Y-70493054D01*
X146915449Y-70628635D01*
X146923979Y-70631395D01*
X146941864Y-70635804D01*
X146958815Y-70643512D01*
X146967601Y-70646744D01*
X146978311Y-70649802D01*
X146978671Y-70649904D01*
X147327264Y-70747233D01*
X147336048Y-70749024D01*
X147354310Y-70751412D01*
X147372016Y-70757182D01*
X147381098Y-70759412D01*
X147392081Y-70761259D01*
X147392458Y-70761322D01*
X147749733Y-70819188D01*
X147758662Y-70819989D01*
X147777081Y-70820327D01*
X147795316Y-70824086D01*
X147804594Y-70825291D01*
X147815715Y-70825902D01*
X147816094Y-70825921D01*
X148177592Y-70843602D01*
X148186554Y-70843402D01*
X148204895Y-70841685D01*
X148223435Y-70843388D01*
X148232789Y-70843551D01*
X148243908Y-70842919D01*
X148244287Y-70842896D01*
X148605504Y-70820171D01*
X148614389Y-70818973D01*
X148632419Y-70815223D01*
X148651034Y-70814849D01*
X148660342Y-70813969D01*
X148671324Y-70812102D01*
X148671705Y-70812036D01*
X149028139Y-70749186D01*
X149036835Y-70747006D01*
X149054339Y-70741268D01*
X149072793Y-70738822D01*
X149081949Y-70736909D01*
X149092653Y-70733829D01*
X149093019Y-70733722D01*
X149440223Y-70631535D01*
X149448622Y-70628399D01*
X149465377Y-70620746D01*
X149483447Y-70616257D01*
X149492335Y-70613335D01*
X149502628Y-70609080D01*
X149502979Y-70608934D01*
X149836629Y-70468681D01*
X149844626Y-70464628D01*
X149860424Y-70455155D01*
X149877880Y-70448680D01*
X149886386Y-70444786D01*
X149896142Y-70439411D01*
X149896474Y-70439226D01*
X150212411Y-70262654D01*
X150219906Y-70257736D01*
X150234549Y-70246561D01*
X150251175Y-70238181D01*
X150259194Y-70233363D01*
X150268289Y-70226934D01*
X150268599Y-70226713D01*
X150562885Y-70016025D01*
X150569786Y-70010301D01*
X150583092Y-69997563D01*
X150598676Y-69987384D01*
X150606105Y-69981704D01*
X150614428Y-69974302D01*
X150614714Y-69974045D01*
X150883682Y-69731865D01*
X150889901Y-69725407D01*
X150901701Y-69711270D01*
X150916058Y-69699414D01*
X150922808Y-69692940D01*
X150930253Y-69684657D01*
X150930508Y-69684371D01*
X151170805Y-69413720D01*
X151176265Y-69406610D01*
X151186418Y-69391242D01*
X151199366Y-69377857D01*
X151205356Y-69370667D01*
X151211830Y-69361604D01*
X151212049Y-69361297D01*
X151420676Y-69065549D01*
X151425310Y-69057874D01*
X151433687Y-69041469D01*
X151445060Y-69026728D01*
X151450208Y-69018921D01*
X151455633Y-69009193D01*
X151455818Y-69008858D01*
X151630180Y-68691694D01*
X151633930Y-68683550D01*
X151640425Y-68666317D01*
X151650086Y-68650396D01*
X151654334Y-68642055D01*
X151658640Y-68631783D01*
X151658784Y-68631436D01*
X151796704Y-68296818D01*
X151799523Y-68288306D01*
X151804056Y-68270456D01*
X151811882Y-68253559D01*
X151815176Y-68244794D01*
X151818310Y-68234105D01*
X151818413Y-68233747D01*
X151918174Y-67885841D01*
X151920027Y-67877070D01*
X151922542Y-67858825D01*
X151928436Y-67841159D01*
X151930730Y-67832090D01*
X151932654Y-67821119D01*
X151932719Y-67820744D01*
X151993077Y-67463882D01*
X151993940Y-67454958D01*
X151994406Y-67436545D01*
X151998293Y-67418340D01*
X151999562Y-67409073D01*
X152000251Y-67397956D01*
X152000274Y-67397575D01*
X152020478Y-67036207D01*
X152020341Y-67027243D01*
X152016000Y-66977124D01*
X152016000Y-66739000D01*
X172601946Y-66739000D01*
X172605750Y-66739698D01*
X172616824Y-66740892D01*
X172617209Y-66740932D01*
X172753885Y-66754816D01*
X172822830Y-66776421D01*
X172886022Y-66811449D01*
X172940883Y-66858471D01*
X172985166Y-66915561D01*
X173017065Y-66980388D01*
X173037265Y-67057939D01*
X173045004Y-67158511D01*
X173046326Y-67167378D01*
X173048001Y-67174903D01*
X173048000Y-76271000D01*
X171896247Y-76271000D01*
X171831179Y-76268273D01*
X171821827Y-76268575D01*
X171810752Y-76269760D01*
X171810376Y-76269801D01*
X171761085Y-76275374D01*
X171753115Y-76276855D01*
X171748978Y-76276898D01*
X171731236Y-76279629D01*
X171665198Y-76299694D01*
X171598431Y-76317085D01*
X171581875Y-76324028D01*
X171578393Y-76326112D01*
X171570218Y-76329275D01*
X171560157Y-76334053D01*
X171559814Y-76334217D01*
X171475479Y-76374895D01*
X171467701Y-76379355D01*
X171438552Y-76398943D01*
X171403024Y-76416502D01*
X171388219Y-76426658D01*
X171363553Y-76449340D01*
X171335752Y-76468021D01*
X171322420Y-76480046D01*
X171297061Y-76510483D01*
X171271057Y-76534395D01*
X171264658Y-76541221D01*
X171257665Y-76549890D01*
X171257427Y-76550186D01*
X171199076Y-76623412D01*
X171194002Y-76630803D01*
X171176229Y-76661095D01*
X171151834Y-76692319D01*
X171142898Y-76707890D01*
X171130507Y-76739028D01*
X171113556Y-76767921D01*
X171106758Y-76784538D01*
X171097109Y-76822955D01*
X171084046Y-76855779D01*
X171081240Y-76864706D01*
X171078698Y-76875550D01*
X171078613Y-76875918D01*
X171057789Y-76967205D01*
X171056421Y-76976065D01*
X171051254Y-77038913D01*
X171048693Y-77056050D01*
X171048000Y-77065376D01*
X171048000Y-77078488D01*
X171043394Y-77134504D01*
X171044474Y-77152424D01*
X171048000Y-77169602D01*
X171048001Y-78390730D01*
X171045273Y-78455821D01*
X171045575Y-78465174D01*
X171046760Y-78476248D01*
X171046801Y-78476624D01*
X171052374Y-78525914D01*
X171053855Y-78533883D01*
X171053898Y-78538022D01*
X171056629Y-78555764D01*
X171076685Y-78621773D01*
X171094084Y-78688569D01*
X171101027Y-78705126D01*
X171103115Y-78708614D01*
X171106275Y-78716782D01*
X171111053Y-78726843D01*
X171111217Y-78727186D01*
X171151895Y-78811521D01*
X171156355Y-78819299D01*
X171175943Y-78848448D01*
X171193502Y-78883976D01*
X171203658Y-78898781D01*
X171226340Y-78923447D01*
X171245021Y-78951248D01*
X171257045Y-78964580D01*
X171287484Y-78989941D01*
X171311395Y-79015943D01*
X171318221Y-79022342D01*
X171326890Y-79029335D01*
X171327186Y-79029573D01*
X171400412Y-79087924D01*
X171407803Y-79092998D01*
X171438095Y-79110771D01*
X171469319Y-79135166D01*
X171484890Y-79144102D01*
X171516028Y-79156493D01*
X171544921Y-79173444D01*
X171561538Y-79180242D01*
X171599955Y-79189891D01*
X171632779Y-79202954D01*
X171641706Y-79205760D01*
X171652550Y-79208302D01*
X171652918Y-79208387D01*
X171744205Y-79229211D01*
X171753065Y-79230579D01*
X171815915Y-79235746D01*
X171833050Y-79238307D01*
X171842375Y-79239000D01*
X171855489Y-79239000D01*
X171911505Y-79243606D01*
X171929425Y-79242526D01*
X171946603Y-79239000D01*
X173048001Y-79239000D01*
X173048000Y-87271000D01*
X173046247Y-87271000D01*
X172981179Y-87268273D01*
X172971827Y-87268575D01*
X172960752Y-87269760D01*
X172960376Y-87269801D01*
X172911085Y-87275374D01*
X172903115Y-87276855D01*
X172898978Y-87276898D01*
X172881236Y-87279629D01*
X172815198Y-87299694D01*
X172748431Y-87317085D01*
X172731875Y-87324028D01*
X172728393Y-87326112D01*
X172720218Y-87329275D01*
X172710157Y-87334053D01*
X172709814Y-87334217D01*
X172625479Y-87374895D01*
X172617701Y-87379355D01*
X172588552Y-87398943D01*
X172553024Y-87416502D01*
X172538219Y-87426658D01*
X172513553Y-87449340D01*
X172485752Y-87468021D01*
X172472420Y-87480046D01*
X172447061Y-87510483D01*
X172421057Y-87534395D01*
X172414658Y-87541221D01*
X172407665Y-87549890D01*
X172407427Y-87550186D01*
X172349076Y-87623412D01*
X172344002Y-87630803D01*
X172326229Y-87661095D01*
X172301834Y-87692319D01*
X172292898Y-87707890D01*
X172280507Y-87739028D01*
X172263556Y-87767921D01*
X172256758Y-87784538D01*
X172247109Y-87822955D01*
X172234046Y-87855779D01*
X172231240Y-87864706D01*
X172228698Y-87875550D01*
X172228613Y-87875918D01*
X172207789Y-87967205D01*
X172206421Y-87976065D01*
X172201253Y-88038924D01*
X172198694Y-88056049D01*
X172198001Y-88065375D01*
X172198001Y-88078477D01*
X172193394Y-88134505D01*
X172194474Y-88152425D01*
X172198001Y-88169607D01*
X172198001Y-89605800D01*
X172089686Y-89605800D01*
X172048052Y-89568312D01*
X172037368Y-89560549D01*
X171860632Y-89458511D01*
X171848567Y-89453139D01*
X171654480Y-89390076D01*
X171641562Y-89387330D01*
X171438603Y-89365999D01*
X171425397Y-89365999D01*
X171222438Y-89387330D01*
X171209520Y-89390076D01*
X171015433Y-89453139D01*
X171003368Y-89458511D01*
X170826632Y-89560549D01*
X170815948Y-89568312D01*
X170774314Y-89605800D01*
X170589686Y-89605800D01*
X170548052Y-89568312D01*
X170537368Y-89560549D01*
X170360632Y-89458511D01*
X170348567Y-89453139D01*
X170154480Y-89390076D01*
X170141562Y-89387330D01*
X169938603Y-89365999D01*
X169925397Y-89365999D01*
X169722438Y-89387330D01*
X169709520Y-89390076D01*
X169515433Y-89453139D01*
X169503368Y-89458511D01*
X169326632Y-89560549D01*
X169315948Y-89568312D01*
X169274314Y-89605800D01*
X169089686Y-89605800D01*
X169048052Y-89568312D01*
X169037368Y-89560549D01*
X168860632Y-89458511D01*
X168848567Y-89453139D01*
X168654480Y-89390076D01*
X168641562Y-89387330D01*
X168438603Y-89365999D01*
X168425397Y-89365999D01*
X168222438Y-89387330D01*
X168209520Y-89390076D01*
X168015433Y-89453139D01*
X168003368Y-89458511D01*
X167826632Y-89560549D01*
X167815948Y-89568312D01*
X167774314Y-89605800D01*
X167589686Y-89605800D01*
X167548052Y-89568312D01*
X167537368Y-89560549D01*
X167360632Y-89458511D01*
X167348567Y-89453139D01*
X167154480Y-89390076D01*
X167141562Y-89387330D01*
X166938603Y-89365999D01*
X166925397Y-89365999D01*
X166722438Y-89387330D01*
X166709520Y-89390076D01*
X166515433Y-89453139D01*
X166503368Y-89458511D01*
X166326632Y-89560549D01*
X166315948Y-89568312D01*
X166274314Y-89605800D01*
X166089686Y-89605800D01*
X166048052Y-89568312D01*
X166037368Y-89560549D01*
X165860632Y-89458511D01*
X165848567Y-89453139D01*
X165654480Y-89390076D01*
X165641562Y-89387330D01*
X165438603Y-89365999D01*
X165425397Y-89365999D01*
X165222438Y-89387330D01*
X165209520Y-89390076D01*
X165015433Y-89453139D01*
X165003368Y-89458511D01*
X164826632Y-89560549D01*
X164815948Y-89568312D01*
X164774314Y-89605800D01*
X164589686Y-89605800D01*
X164548052Y-89568312D01*
X164537368Y-89560549D01*
X164360632Y-89458511D01*
X164348567Y-89453139D01*
X164154480Y-89390076D01*
X164141562Y-89387330D01*
X163938603Y-89365999D01*
X163925397Y-89365999D01*
X163722438Y-89387330D01*
X163709520Y-89390076D01*
X163515433Y-89453139D01*
X163503368Y-89458511D01*
X163326632Y-89560549D01*
X163315948Y-89568312D01*
X163274314Y-89605800D01*
X163089686Y-89605800D01*
X163048052Y-89568312D01*
X163037368Y-89560549D01*
X162860632Y-89458511D01*
X162848567Y-89453139D01*
X162654480Y-89390076D01*
X162641562Y-89387330D01*
X162438603Y-89365999D01*
X162425397Y-89365999D01*
X162222438Y-89387330D01*
X162209520Y-89390076D01*
X162015433Y-89453139D01*
X162003368Y-89458511D01*
X161826632Y-89560549D01*
X161815948Y-89568312D01*
X161774314Y-89605800D01*
X161589686Y-89605800D01*
X161548052Y-89568312D01*
X161537368Y-89560549D01*
X161360632Y-89458511D01*
X161348567Y-89453139D01*
X161154480Y-89390076D01*
X161141562Y-89387330D01*
X160938603Y-89365999D01*
X160925397Y-89365999D01*
X160722438Y-89387330D01*
X160709520Y-89390076D01*
X160515433Y-89453139D01*
X160503368Y-89458511D01*
X160326632Y-89560549D01*
X160315948Y-89568312D01*
X160274314Y-89605800D01*
X160089686Y-89605800D01*
X160048052Y-89568312D01*
X160037368Y-89560549D01*
X159860632Y-89458511D01*
X159848567Y-89453139D01*
X159654480Y-89390076D01*
X159641562Y-89387330D01*
X159438603Y-89365999D01*
X159425397Y-89365999D01*
X159222438Y-89387330D01*
X159209520Y-89390076D01*
X159015433Y-89453139D01*
X159003368Y-89458511D01*
X158826632Y-89560549D01*
X158815948Y-89568312D01*
X158774314Y-89605800D01*
X158589686Y-89605800D01*
X158548052Y-89568312D01*
X158537368Y-89560549D01*
X158360632Y-89458511D01*
X158348567Y-89453139D01*
X158154480Y-89390076D01*
X158141562Y-89387330D01*
X157938603Y-89365999D01*
X157925397Y-89365999D01*
X157722438Y-89387330D01*
X157709520Y-89390076D01*
X157515433Y-89453139D01*
X157503368Y-89458511D01*
X157326632Y-89560549D01*
X157315948Y-89568312D01*
X157274314Y-89605800D01*
X157089686Y-89605800D01*
X157048052Y-89568312D01*
X157037368Y-89560549D01*
X156920271Y-89492943D01*
X161739008Y-84674209D01*
X161739014Y-84674201D01*
X161776336Y-84636881D01*
X161787994Y-84620835D01*
X161810966Y-84575750D01*
X161840706Y-84534816D01*
X161849710Y-84517146D01*
X161865345Y-84469027D01*
X161888318Y-84423939D01*
X161894446Y-84405077D01*
X161902363Y-84355095D01*
X161917997Y-84306980D01*
X161921099Y-84287391D01*
X161921099Y-84232091D01*
X161921100Y-84232079D01*
X161921100Y-83522424D01*
X161983216Y-83460309D01*
X161993271Y-83447205D01*
X162121333Y-83225395D01*
X162127654Y-83210135D01*
X162193944Y-82962738D01*
X162196100Y-82946362D01*
X162196100Y-82690238D01*
X162193944Y-82673862D01*
X162156056Y-82532458D01*
X169470116Y-75218400D01*
X169557962Y-75218400D01*
X169574338Y-75216244D01*
X169821735Y-75149954D01*
X169836995Y-75143633D01*
X170058805Y-75015571D01*
X170071909Y-75005516D01*
X170253016Y-74824409D01*
X170263071Y-74811305D01*
X170391133Y-74589495D01*
X170397454Y-74574235D01*
X170463744Y-74326838D01*
X170465900Y-74310462D01*
X170465900Y-74054338D01*
X170463744Y-74037962D01*
X170397454Y-73790565D01*
X170391133Y-73775305D01*
X170263071Y-73553495D01*
X170253016Y-73540391D01*
X170071909Y-73359284D01*
X170058805Y-73349229D01*
X169836995Y-73221167D01*
X169821735Y-73214846D01*
X169574338Y-73148556D01*
X169557962Y-73146400D01*
X169301838Y-73146400D01*
X169285462Y-73148556D01*
X169038065Y-73214846D01*
X169022805Y-73221167D01*
X168800995Y-73349229D01*
X168787891Y-73359284D01*
X168606784Y-73540391D01*
X168596729Y-73553495D01*
X168468667Y-73775305D01*
X168462346Y-73790565D01*
X168396056Y-74037962D01*
X168393900Y-74054338D01*
X168393900Y-74142184D01*
X166474133Y-76061952D01*
X166533633Y-75958895D01*
X166539954Y-75943635D01*
X166606244Y-75696238D01*
X166608400Y-75679862D01*
X166608400Y-75423738D01*
X166606244Y-75407362D01*
X166539954Y-75159965D01*
X166533633Y-75144705D01*
X166405571Y-74922895D01*
X166395516Y-74909791D01*
X166214409Y-74728684D01*
X166201305Y-74718629D01*
X165979495Y-74590567D01*
X165964235Y-74584246D01*
X165716838Y-74517956D01*
X165700462Y-74515800D01*
X165444338Y-74515800D01*
X165427962Y-74517956D01*
X165180565Y-74584246D01*
X165165305Y-74590567D01*
X164943495Y-74718629D01*
X164930391Y-74728684D01*
X164749284Y-74909791D01*
X164739229Y-74922895D01*
X164611167Y-75144705D01*
X164604846Y-75159965D01*
X164538556Y-75407362D01*
X164536400Y-75423738D01*
X164536400Y-75679862D01*
X164538556Y-75696238D01*
X164604846Y-75943635D01*
X164611167Y-75958895D01*
X164739229Y-76180705D01*
X164749284Y-76193809D01*
X164811400Y-76255924D01*
X164811401Y-76588584D01*
X164188005Y-77211980D01*
X164051309Y-77075284D01*
X164038205Y-77065229D01*
X163816395Y-76937167D01*
X163801135Y-76930846D01*
X163553738Y-76864556D01*
X163537362Y-76862400D01*
X163281238Y-76862400D01*
X163264862Y-76864556D01*
X163017465Y-76930846D01*
X163002205Y-76937167D01*
X162780395Y-77065229D01*
X162767291Y-77075284D01*
X162705176Y-77137400D01*
X159614921Y-77137400D01*
X159614909Y-77137401D01*
X159559610Y-77137401D01*
X159540022Y-77140503D01*
X159491908Y-77156136D01*
X159441923Y-77164053D01*
X159423062Y-77170182D01*
X159377979Y-77193153D01*
X159329854Y-77208790D01*
X159312182Y-77217794D01*
X159271244Y-77247538D01*
X159226166Y-77270506D01*
X159210121Y-77282163D01*
X155865800Y-80626485D01*
X155865800Y-76208621D01*
X155865799Y-76208609D01*
X155865799Y-76153310D01*
X155862697Y-76133722D01*
X155847064Y-76085608D01*
X155839147Y-76035623D01*
X155833018Y-76016762D01*
X155810047Y-75971679D01*
X155794410Y-75923554D01*
X155785406Y-75905882D01*
X155755662Y-75864944D01*
X155732694Y-75819866D01*
X155721037Y-75803821D01*
X155352215Y-75435000D01*
X162784598Y-75435000D01*
X162914905Y-75510233D01*
X162930165Y-75516554D01*
X163177562Y-75582844D01*
X163193938Y-75585000D01*
X163450062Y-75585000D01*
X163466438Y-75582844D01*
X163713835Y-75516554D01*
X163729095Y-75510233D01*
X163950905Y-75382171D01*
X163964009Y-75372116D01*
X164145116Y-75191009D01*
X164155171Y-75177905D01*
X164283233Y-74956095D01*
X164289554Y-74940835D01*
X164355844Y-74693438D01*
X164358000Y-74677062D01*
X164358000Y-74420938D01*
X164355844Y-74404562D01*
X164289554Y-74157165D01*
X164283233Y-74141905D01*
X164155171Y-73920095D01*
X164145116Y-73906991D01*
X163964009Y-73725884D01*
X163950905Y-73715829D01*
X163729095Y-73587767D01*
X163713835Y-73581446D01*
X163466438Y-73515156D01*
X163450062Y-73513000D01*
X163193938Y-73513000D01*
X163177562Y-73515156D01*
X162930165Y-73581446D01*
X162914905Y-73587767D01*
X162784598Y-73663000D01*
X140561263Y-73663000D01*
X140542631Y-73658784D01*
X140524735Y-73657344D01*
X140433575Y-73663000D01*
X140402948Y-73663000D01*
X140394007Y-73663637D01*
X140371605Y-73666845D01*
X140289535Y-73671937D01*
X140271956Y-73675577D01*
X140246524Y-73684758D01*
X140219751Y-73688592D01*
X140202521Y-73693631D01*
X140127651Y-73727671D01*
X140050122Y-73755660D01*
X140033956Y-73764320D01*
X140013090Y-73779759D01*
X139988001Y-73791167D01*
X139972876Y-73800839D01*
X139901571Y-73862280D01*
X139882869Y-73876119D01*
X139875785Y-73882222D01*
X139859334Y-73898674D01*
X139794355Y-73954663D01*
X139782553Y-73968192D01*
X139769172Y-73988836D01*
X127708209Y-86049800D01*
X123535083Y-86049800D01*
X123461274Y-86123609D01*
X123461274Y-86684800D01*
X123316000Y-86684800D01*
X123316000Y-80939000D01*
X124467753Y-80939000D01*
X124532821Y-80941727D01*
X124542174Y-80941425D01*
X124553248Y-80940240D01*
X124553624Y-80940199D01*
X124602914Y-80934626D01*
X124610883Y-80933145D01*
X124615022Y-80933102D01*
X124632764Y-80930371D01*
X124698773Y-80910315D01*
X124765569Y-80892916D01*
X124782126Y-80885973D01*
X124785614Y-80883885D01*
X124793782Y-80880725D01*
X124803843Y-80875947D01*
X124804186Y-80875783D01*
X124888521Y-80835105D01*
X124896299Y-80830645D01*
X124925448Y-80811057D01*
X124960976Y-80793498D01*
X124975781Y-80783342D01*
X125000447Y-80760660D01*
X125028248Y-80741979D01*
X125041580Y-80729955D01*
X125066941Y-80699516D01*
X125092943Y-80675605D01*
X125099342Y-80668779D01*
X125106335Y-80660110D01*
X125106573Y-80659814D01*
X125164924Y-80586588D01*
X125169998Y-80579197D01*
X125187771Y-80548905D01*
X125212166Y-80517681D01*
X125221102Y-80502110D01*
X125233493Y-80470972D01*
X125250444Y-80442079D01*
X125257242Y-80425462D01*
X125266891Y-80387045D01*
X125279954Y-80354221D01*
X125282760Y-80345294D01*
X125285302Y-80334450D01*
X125285387Y-80334082D01*
X125306211Y-80242795D01*
X125307579Y-80233935D01*
X125312746Y-80171085D01*
X125315307Y-80153950D01*
X125316000Y-80144625D01*
X125316000Y-80131511D01*
X125320606Y-80075495D01*
X125319526Y-80057575D01*
X125316000Y-80040397D01*
X125316000Y-78819247D01*
X125318727Y-78754179D01*
X125318425Y-78744827D01*
X125317240Y-78733752D01*
X125317199Y-78733376D01*
X125311626Y-78684085D01*
X125310145Y-78676115D01*
X125310102Y-78671978D01*
X125307371Y-78654236D01*
X125287306Y-78588198D01*
X125269915Y-78521431D01*
X125262972Y-78504875D01*
X125260888Y-78501393D01*
X125257725Y-78493218D01*
X125252947Y-78483157D01*
X125252783Y-78482814D01*
X125212105Y-78398479D01*
X125207645Y-78390701D01*
X125188057Y-78361552D01*
X125170498Y-78326024D01*
X125160342Y-78311219D01*
X125137660Y-78286553D01*
X125118979Y-78258752D01*
X125106954Y-78245420D01*
X125076517Y-78220061D01*
X125052605Y-78194057D01*
X125045779Y-78187658D01*
X125037110Y-78180665D01*
X125036814Y-78180427D01*
X124963588Y-78122076D01*
X124956197Y-78117002D01*
X124925905Y-78099229D01*
X124894681Y-78074834D01*
X124879110Y-78065898D01*
X124847972Y-78053507D01*
X124819079Y-78036556D01*
X124802462Y-78029758D01*
X124764045Y-78020109D01*
X124731221Y-78007046D01*
X124722294Y-78004240D01*
X124711450Y-78001698D01*
X124711082Y-78001613D01*
X124619795Y-77980789D01*
X124610935Y-77979421D01*
X124548085Y-77974254D01*
X124530950Y-77971693D01*
X124521625Y-77971000D01*
X124508511Y-77971000D01*
X124452495Y-77966394D01*
X124434575Y-77967474D01*
X124417397Y-77971000D01*
X123316000Y-77971000D01*
X123316000Y-67185054D01*
X123316698Y-67181250D01*
X123317892Y-67170176D01*
X123317932Y-67169791D01*
X123331816Y-67033115D01*
X123353421Y-66964170D01*
X123388449Y-66900978D01*
X123435471Y-66846117D01*
X123492561Y-66801834D01*
X123557388Y-66769935D01*
X123634939Y-66749735D01*
X123735512Y-66741996D01*
X123744379Y-66740674D01*
X123751899Y-66739000D01*
X144348000Y-66739000D01*
X144348000Y-66957889D01*
G37*
D14*
X144348000Y-66957889D02*
X144343463Y-66988427D01*
X144342779Y-66997757D01*
X144342789Y-67008894D01*
X144342791Y-67009274D01*
X144343135Y-67058626D01*
X144343835Y-67067566D01*
X144344244Y-67070287D01*
X144343995Y-67073224D01*
X144343897Y-67082574D01*
X144344606Y-67093690D01*
X144344631Y-67094076D01*
X144369879Y-67455127D01*
X144371138Y-67464004D01*
X144375015Y-67482011D01*
X144375519Y-67500624D01*
X144376465Y-67509935D01*
X144378410Y-67520902D01*
X144378477Y-67521273D01*
X144443811Y-67877257D01*
X144446052Y-67885938D01*
X144451914Y-67903405D01*
X144454488Y-67921837D01*
X144456464Y-67930980D01*
X144459619Y-67941663D01*
X144459729Y-67942029D01*
X144564338Y-68288512D01*
X144567533Y-68296889D01*
X144575301Y-68313586D01*
X144579916Y-68331624D01*
X144582899Y-68340488D01*
X144587225Y-68350751D01*
X144587374Y-68351103D01*
X144729953Y-68683768D01*
X144734061Y-68691735D01*
X144743647Y-68707470D01*
X144750244Y-68724881D01*
X144754195Y-68733355D01*
X144759637Y-68743072D01*
X144759826Y-68743407D01*
X144938600Y-69058105D01*
X144943571Y-69065566D01*
X144954847Y-69080128D01*
X144963343Y-69096695D01*
X144968217Y-69104680D01*
X144974710Y-69113730D01*
X144974932Y-69114038D01*
X145187669Y-69406846D01*
X145193441Y-69413706D01*
X145206270Y-69426922D01*
X145216559Y-69442437D01*
X145222287Y-69449821D01*
X145229745Y-69458092D01*
X145230007Y-69458380D01*
X145474060Y-69725652D01*
X145480560Y-69731826D01*
X145494788Y-69743534D01*
X145506739Y-69757802D01*
X145513254Y-69764502D01*
X145521589Y-69771890D01*
X145521881Y-69772147D01*
X145794206Y-70010549D01*
X145801354Y-70015960D01*
X145816794Y-70026006D01*
X145830266Y-70038858D01*
X145837499Y-70044798D01*
X145846606Y-70051208D01*
X145846914Y-70051424D01*
X146144112Y-70257982D01*
X146151820Y-70262563D01*
X146168279Y-70270823D01*
X146183101Y-70282094D01*
X146190950Y-70287191D01*
X146200715Y-70292547D01*
X146201047Y-70292728D01*
X146519419Y-70464871D01*
X146527588Y-70468564D01*
X146544867Y-70474938D01*
X146560852Y-70484486D01*
X146569216Y-70488674D01*
X146579517Y-70492909D01*
X146579871Y-70493054D01*
X146915449Y-70628635D01*
X146923979Y-70631395D01*
X146941864Y-70635804D01*
X146958815Y-70643512D01*
X146967601Y-70646744D01*
X146978311Y-70649802D01*
X146978671Y-70649904D01*
X147327264Y-70747233D01*
X147336048Y-70749024D01*
X147354310Y-70751412D01*
X147372016Y-70757182D01*
X147381098Y-70759412D01*
X147392081Y-70761259D01*
X147392458Y-70761322D01*
X147749733Y-70819188D01*
X147758662Y-70819989D01*
X147777081Y-70820327D01*
X147795316Y-70824086D01*
X147804594Y-70825291D01*
X147815715Y-70825902D01*
X147816094Y-70825921D01*
X148177592Y-70843602D01*
X148186554Y-70843402D01*
X148204895Y-70841685D01*
X148223435Y-70843388D01*
X148232789Y-70843551D01*
X148243908Y-70842919D01*
X148244287Y-70842896D01*
X148605504Y-70820171D01*
X148614389Y-70818973D01*
X148632419Y-70815223D01*
X148651034Y-70814849D01*
X148660342Y-70813969D01*
X148671324Y-70812102D01*
X148671705Y-70812036D01*
X149028139Y-70749186D01*
X149036835Y-70747006D01*
X149054339Y-70741268D01*
X149072793Y-70738822D01*
X149081949Y-70736909D01*
X149092653Y-70733829D01*
X149093019Y-70733722D01*
X149440223Y-70631535D01*
X149448622Y-70628399D01*
X149465377Y-70620746D01*
X149483447Y-70616257D01*
X149492335Y-70613335D01*
X149502628Y-70609080D01*
X149502979Y-70608934D01*
X149836629Y-70468681D01*
X149844626Y-70464628D01*
X149860424Y-70455155D01*
X149877880Y-70448680D01*
X149886386Y-70444786D01*
X149896142Y-70439411D01*
X149896474Y-70439226D01*
X150212411Y-70262654D01*
X150219906Y-70257736D01*
X150234549Y-70246561D01*
X150251175Y-70238181D01*
X150259194Y-70233363D01*
X150268289Y-70226934D01*
X150268599Y-70226713D01*
X150562885Y-70016025D01*
X150569786Y-70010301D01*
X150583092Y-69997563D01*
X150598676Y-69987384D01*
X150606105Y-69981704D01*
X150614428Y-69974302D01*
X150614714Y-69974045D01*
X150883682Y-69731865D01*
X150889901Y-69725407D01*
X150901701Y-69711270D01*
X150916058Y-69699414D01*
X150922808Y-69692940D01*
X150930253Y-69684657D01*
X150930508Y-69684371D01*
X151170805Y-69413720D01*
X151176265Y-69406610D01*
X151186418Y-69391242D01*
X151199366Y-69377857D01*
X151205356Y-69370667D01*
X151211830Y-69361604D01*
X151212049Y-69361297D01*
X151420676Y-69065549D01*
X151425310Y-69057874D01*
X151433687Y-69041469D01*
X151445060Y-69026728D01*
X151450208Y-69018921D01*
X151455633Y-69009193D01*
X151455818Y-69008858D01*
X151630180Y-68691694D01*
X151633930Y-68683550D01*
X151640425Y-68666317D01*
X151650086Y-68650396D01*
X151654334Y-68642055D01*
X151658640Y-68631783D01*
X151658784Y-68631436D01*
X151796704Y-68296818D01*
X151799523Y-68288306D01*
X151804056Y-68270456D01*
X151811882Y-68253559D01*
X151815176Y-68244794D01*
X151818310Y-68234105D01*
X151818413Y-68233747D01*
X151918174Y-67885841D01*
X151920027Y-67877070D01*
X151922542Y-67858825D01*
X151928436Y-67841159D01*
X151930730Y-67832090D01*
X151932654Y-67821119D01*
X151932719Y-67820744D01*
X151993077Y-67463882D01*
X151993940Y-67454958D01*
X151994406Y-67436545D01*
X151998293Y-67418340D01*
X151999562Y-67409073D01*
X152000251Y-67397956D01*
X152000274Y-67397575D01*
X152020478Y-67036207D01*
X152020341Y-67027243D01*
X152016000Y-66977124D01*
X152016000Y-66739000D01*
X172601946Y-66739000D01*
X172605750Y-66739698D01*
X172616824Y-66740892D01*
X172617209Y-66740932D01*
X172753885Y-66754816D01*
X172822830Y-66776421D01*
X172886022Y-66811449D01*
X172940883Y-66858471D01*
X172985166Y-66915561D01*
X173017065Y-66980388D01*
X173037265Y-67057939D01*
X173045004Y-67158511D01*
X173046326Y-67167378D01*
X173048001Y-67174903D01*
X173048000Y-76271000D01*
X171896247Y-76271000D01*
X171831179Y-76268273D01*
X171821827Y-76268575D01*
X171810752Y-76269760D01*
X171810376Y-76269801D01*
X171761085Y-76275374D01*
X171753115Y-76276855D01*
X171748978Y-76276898D01*
X171731236Y-76279629D01*
X171665198Y-76299694D01*
X171598431Y-76317085D01*
X171581875Y-76324028D01*
X171578393Y-76326112D01*
X171570218Y-76329275D01*
X171560157Y-76334053D01*
X171559814Y-76334217D01*
X171475479Y-76374895D01*
X171467701Y-76379355D01*
X171438552Y-76398943D01*
X171403024Y-76416502D01*
X171388219Y-76426658D01*
X171363553Y-76449340D01*
X171335752Y-76468021D01*
X171322420Y-76480046D01*
X171297061Y-76510483D01*
X171271057Y-76534395D01*
X171264658Y-76541221D01*
X171257665Y-76549890D01*
X171257427Y-76550186D01*
X171199076Y-76623412D01*
X171194002Y-76630803D01*
X171176229Y-76661095D01*
X171151834Y-76692319D01*
X171142898Y-76707890D01*
X171130507Y-76739028D01*
X171113556Y-76767921D01*
X171106758Y-76784538D01*
X171097109Y-76822955D01*
X171084046Y-76855779D01*
X171081240Y-76864706D01*
X171078698Y-76875550D01*
X171078613Y-76875918D01*
X171057789Y-76967205D01*
X171056421Y-76976065D01*
X171051254Y-77038913D01*
X171048693Y-77056050D01*
X171048000Y-77065376D01*
X171048000Y-77078488D01*
X171043394Y-77134504D01*
X171044474Y-77152424D01*
X171048000Y-77169602D01*
X171048001Y-78390730D01*
X171045273Y-78455821D01*
X171045575Y-78465174D01*
X171046760Y-78476248D01*
X171046801Y-78476624D01*
X171052374Y-78525914D01*
X171053855Y-78533883D01*
X171053898Y-78538022D01*
X171056629Y-78555764D01*
X171076685Y-78621773D01*
X171094084Y-78688569D01*
X171101027Y-78705126D01*
X171103115Y-78708614D01*
X171106275Y-78716782D01*
X171111053Y-78726843D01*
X171111217Y-78727186D01*
X171151895Y-78811521D01*
X171156355Y-78819299D01*
X171175943Y-78848448D01*
X171193502Y-78883976D01*
X171203658Y-78898781D01*
X171226340Y-78923447D01*
X171245021Y-78951248D01*
X171257045Y-78964580D01*
X171287484Y-78989941D01*
X171311395Y-79015943D01*
X171318221Y-79022342D01*
X171326890Y-79029335D01*
X171327186Y-79029573D01*
X171400412Y-79087924D01*
X171407803Y-79092998D01*
X171438095Y-79110771D01*
X171469319Y-79135166D01*
X171484890Y-79144102D01*
X171516028Y-79156493D01*
X171544921Y-79173444D01*
X171561538Y-79180242D01*
X171599955Y-79189891D01*
X171632779Y-79202954D01*
X171641706Y-79205760D01*
X171652550Y-79208302D01*
X171652918Y-79208387D01*
X171744205Y-79229211D01*
X171753065Y-79230579D01*
X171815915Y-79235746D01*
X171833050Y-79238307D01*
X171842375Y-79239000D01*
X171855489Y-79239000D01*
X171911505Y-79243606D01*
X171929425Y-79242526D01*
X171946603Y-79239000D01*
X173048001Y-79239000D01*
X173048000Y-87271000D01*
X173046247Y-87271000D01*
X172981179Y-87268273D01*
X172971827Y-87268575D01*
X172960752Y-87269760D01*
X172960376Y-87269801D01*
X172911085Y-87275374D01*
X172903115Y-87276855D01*
X172898978Y-87276898D01*
X172881236Y-87279629D01*
X172815198Y-87299694D01*
X172748431Y-87317085D01*
X172731875Y-87324028D01*
X172728393Y-87326112D01*
X172720218Y-87329275D01*
X172710157Y-87334053D01*
X172709814Y-87334217D01*
X172625479Y-87374895D01*
X172617701Y-87379355D01*
X172588552Y-87398943D01*
X172553024Y-87416502D01*
X172538219Y-87426658D01*
X172513553Y-87449340D01*
X172485752Y-87468021D01*
X172472420Y-87480046D01*
X172447061Y-87510483D01*
X172421057Y-87534395D01*
X172414658Y-87541221D01*
X172407665Y-87549890D01*
X172407427Y-87550186D01*
X172349076Y-87623412D01*
X172344002Y-87630803D01*
X172326229Y-87661095D01*
X172301834Y-87692319D01*
X172292898Y-87707890D01*
X172280507Y-87739028D01*
X172263556Y-87767921D01*
X172256758Y-87784538D01*
X172247109Y-87822955D01*
X172234046Y-87855779D01*
X172231240Y-87864706D01*
X172228698Y-87875550D01*
X172228613Y-87875918D01*
X172207789Y-87967205D01*
X172206421Y-87976065D01*
X172201253Y-88038924D01*
X172198694Y-88056049D01*
X172198001Y-88065375D01*
X172198001Y-88078477D01*
X172193394Y-88134505D01*
X172194474Y-88152425D01*
X172198001Y-88169607D01*
X172198001Y-89605800D01*
X172089686Y-89605800D01*
X172048052Y-89568312D01*
X172037368Y-89560549D01*
X171860632Y-89458511D01*
X171848567Y-89453139D01*
X171654480Y-89390076D01*
X171641562Y-89387330D01*
X171438603Y-89365999D01*
X171425397Y-89365999D01*
X171222438Y-89387330D01*
X171209520Y-89390076D01*
X171015433Y-89453139D01*
X171003368Y-89458511D01*
X170826632Y-89560549D01*
X170815948Y-89568312D01*
X170774314Y-89605800D01*
X170589686Y-89605800D01*
X170548052Y-89568312D01*
X170537368Y-89560549D01*
X170360632Y-89458511D01*
X170348567Y-89453139D01*
X170154480Y-89390076D01*
X170141562Y-89387330D01*
X169938603Y-89365999D01*
X169925397Y-89365999D01*
X169722438Y-89387330D01*
X169709520Y-89390076D01*
X169515433Y-89453139D01*
X169503368Y-89458511D01*
X169326632Y-89560549D01*
X169315948Y-89568312D01*
X169274314Y-89605800D01*
X169089686Y-89605800D01*
X169048052Y-89568312D01*
X169037368Y-89560549D01*
X168860632Y-89458511D01*
X168848567Y-89453139D01*
X168654480Y-89390076D01*
X168641562Y-89387330D01*
X168438603Y-89365999D01*
X168425397Y-89365999D01*
X168222438Y-89387330D01*
X168209520Y-89390076D01*
X168015433Y-89453139D01*
X168003368Y-89458511D01*
X167826632Y-89560549D01*
X167815948Y-89568312D01*
X167774314Y-89605800D01*
X167589686Y-89605800D01*
X167548052Y-89568312D01*
X167537368Y-89560549D01*
X167360632Y-89458511D01*
X167348567Y-89453139D01*
X167154480Y-89390076D01*
X167141562Y-89387330D01*
X166938603Y-89365999D01*
X166925397Y-89365999D01*
X166722438Y-89387330D01*
X166709520Y-89390076D01*
X166515433Y-89453139D01*
X166503368Y-89458511D01*
X166326632Y-89560549D01*
X166315948Y-89568312D01*
X166274314Y-89605800D01*
X166089686Y-89605800D01*
X166048052Y-89568312D01*
X166037368Y-89560549D01*
X165860632Y-89458511D01*
X165848567Y-89453139D01*
X165654480Y-89390076D01*
X165641562Y-89387330D01*
X165438603Y-89365999D01*
X165425397Y-89365999D01*
X165222438Y-89387330D01*
X165209520Y-89390076D01*
X165015433Y-89453139D01*
X165003368Y-89458511D01*
X164826632Y-89560549D01*
X164815948Y-89568312D01*
X164774314Y-89605800D01*
X164589686Y-89605800D01*
X164548052Y-89568312D01*
X164537368Y-89560549D01*
X164360632Y-89458511D01*
X164348567Y-89453139D01*
X164154480Y-89390076D01*
X164141562Y-89387330D01*
X163938603Y-89365999D01*
X163925397Y-89365999D01*
X163722438Y-89387330D01*
X163709520Y-89390076D01*
X163515433Y-89453139D01*
X163503368Y-89458511D01*
X163326632Y-89560549D01*
X163315948Y-89568312D01*
X163274314Y-89605800D01*
X163089686Y-89605800D01*
X163048052Y-89568312D01*
X163037368Y-89560549D01*
X162860632Y-89458511D01*
X162848567Y-89453139D01*
X162654480Y-89390076D01*
X162641562Y-89387330D01*
X162438603Y-89365999D01*
X162425397Y-89365999D01*
X162222438Y-89387330D01*
X162209520Y-89390076D01*
X162015433Y-89453139D01*
X162003368Y-89458511D01*
X161826632Y-89560549D01*
X161815948Y-89568312D01*
X161774314Y-89605800D01*
X161589686Y-89605800D01*
X161548052Y-89568312D01*
X161537368Y-89560549D01*
X161360632Y-89458511D01*
X161348567Y-89453139D01*
X161154480Y-89390076D01*
X161141562Y-89387330D01*
X160938603Y-89365999D01*
X160925397Y-89365999D01*
X160722438Y-89387330D01*
X160709520Y-89390076D01*
X160515433Y-89453139D01*
X160503368Y-89458511D01*
X160326632Y-89560549D01*
X160315948Y-89568312D01*
X160274314Y-89605800D01*
X160089686Y-89605800D01*
X160048052Y-89568312D01*
X160037368Y-89560549D01*
X159860632Y-89458511D01*
X159848567Y-89453139D01*
X159654480Y-89390076D01*
X159641562Y-89387330D01*
X159438603Y-89365999D01*
X159425397Y-89365999D01*
X159222438Y-89387330D01*
X159209520Y-89390076D01*
X159015433Y-89453139D01*
X159003368Y-89458511D01*
X158826632Y-89560549D01*
X158815948Y-89568312D01*
X158774314Y-89605800D01*
X158589686Y-89605800D01*
X158548052Y-89568312D01*
X158537368Y-89560549D01*
X158360632Y-89458511D01*
X158348567Y-89453139D01*
X158154480Y-89390076D01*
X158141562Y-89387330D01*
X157938603Y-89365999D01*
X157925397Y-89365999D01*
X157722438Y-89387330D01*
X157709520Y-89390076D01*
X157515433Y-89453139D01*
X157503368Y-89458511D01*
X157326632Y-89560549D01*
X157315948Y-89568312D01*
X157274314Y-89605800D01*
X157089686Y-89605800D01*
X157048052Y-89568312D01*
X157037368Y-89560549D01*
X156920271Y-89492943D01*
X161739008Y-84674209D01*
X161739014Y-84674201D01*
X161776336Y-84636881D01*
X161787994Y-84620835D01*
X161810966Y-84575750D01*
X161840706Y-84534816D01*
X161849710Y-84517146D01*
X161865345Y-84469027D01*
X161888318Y-84423939D01*
X161894446Y-84405077D01*
X161902363Y-84355095D01*
X161917997Y-84306980D01*
X161921099Y-84287391D01*
X161921099Y-84232091D01*
X161921100Y-84232079D01*
X161921100Y-83522424D01*
X161983216Y-83460309D01*
X161993271Y-83447205D01*
X162121333Y-83225395D01*
X162127654Y-83210135D01*
X162193944Y-82962738D01*
X162196100Y-82946362D01*
X162196100Y-82690238D01*
X162193944Y-82673862D01*
X162156056Y-82532458D01*
X169470116Y-75218400D01*
X169557962Y-75218400D01*
X169574338Y-75216244D01*
X169821735Y-75149954D01*
X169836995Y-75143633D01*
X170058805Y-75015571D01*
X170071909Y-75005516D01*
X170253016Y-74824409D01*
X170263071Y-74811305D01*
X170391133Y-74589495D01*
X170397454Y-74574235D01*
X170463744Y-74326838D01*
X170465900Y-74310462D01*
X170465900Y-74054338D01*
X170463744Y-74037962D01*
X170397454Y-73790565D01*
X170391133Y-73775305D01*
X170263071Y-73553495D01*
X170253016Y-73540391D01*
X170071909Y-73359284D01*
X170058805Y-73349229D01*
X169836995Y-73221167D01*
X169821735Y-73214846D01*
X169574338Y-73148556D01*
X169557962Y-73146400D01*
X169301838Y-73146400D01*
X169285462Y-73148556D01*
X169038065Y-73214846D01*
X169022805Y-73221167D01*
X168800995Y-73349229D01*
X168787891Y-73359284D01*
X168606784Y-73540391D01*
X168596729Y-73553495D01*
X168468667Y-73775305D01*
X168462346Y-73790565D01*
X168396056Y-74037962D01*
X168393900Y-74054338D01*
X168393900Y-74142184D01*
X166474133Y-76061952D01*
X166533633Y-75958895D01*
X166539954Y-75943635D01*
X166606244Y-75696238D01*
X166608400Y-75679862D01*
X166608400Y-75423738D01*
X166606244Y-75407362D01*
X166539954Y-75159965D01*
X166533633Y-75144705D01*
X166405571Y-74922895D01*
X166395516Y-74909791D01*
X166214409Y-74728684D01*
X166201305Y-74718629D01*
X165979495Y-74590567D01*
X165964235Y-74584246D01*
X165716838Y-74517956D01*
X165700462Y-74515800D01*
X165444338Y-74515800D01*
X165427962Y-74517956D01*
X165180565Y-74584246D01*
X165165305Y-74590567D01*
X164943495Y-74718629D01*
X164930391Y-74728684D01*
X164749284Y-74909791D01*
X164739229Y-74922895D01*
X164611167Y-75144705D01*
X164604846Y-75159965D01*
X164538556Y-75407362D01*
X164536400Y-75423738D01*
X164536400Y-75679862D01*
X164538556Y-75696238D01*
X164604846Y-75943635D01*
X164611167Y-75958895D01*
X164739229Y-76180705D01*
X164749284Y-76193809D01*
X164811400Y-76255924D01*
X164811401Y-76588584D01*
X164188005Y-77211980D01*
X164051309Y-77075284D01*
X164038205Y-77065229D01*
X163816395Y-76937167D01*
X163801135Y-76930846D01*
X163553738Y-76864556D01*
X163537362Y-76862400D01*
X163281238Y-76862400D01*
X163264862Y-76864556D01*
X163017465Y-76930846D01*
X163002205Y-76937167D01*
X162780395Y-77065229D01*
X162767291Y-77075284D01*
X162705176Y-77137400D01*
X159614921Y-77137400D01*
X159614909Y-77137401D01*
X159559610Y-77137401D01*
X159540022Y-77140503D01*
X159491908Y-77156136D01*
X159441923Y-77164053D01*
X159423062Y-77170182D01*
X159377979Y-77193153D01*
X159329854Y-77208790D01*
X159312182Y-77217794D01*
X159271244Y-77247538D01*
X159226166Y-77270506D01*
X159210121Y-77282163D01*
X155865800Y-80626485D01*
X155865800Y-76208621D01*
X155865799Y-76208609D01*
X155865799Y-76153310D01*
X155862697Y-76133722D01*
X155847064Y-76085608D01*
X155839147Y-76035623D01*
X155833018Y-76016762D01*
X155810047Y-75971679D01*
X155794410Y-75923554D01*
X155785406Y-75905882D01*
X155755662Y-75864944D01*
X155732694Y-75819866D01*
X155721037Y-75803821D01*
X155352215Y-75435000D01*
X162784598Y-75435000D01*
X162914905Y-75510233D01*
X162930165Y-75516554D01*
X163177562Y-75582844D01*
X163193938Y-75585000D01*
X163450062Y-75585000D01*
X163466438Y-75582844D01*
X163713835Y-75516554D01*
X163729095Y-75510233D01*
X163950905Y-75382171D01*
X163964009Y-75372116D01*
X164145116Y-75191009D01*
X164155171Y-75177905D01*
X164283233Y-74956095D01*
X164289554Y-74940835D01*
X164355844Y-74693438D01*
X164358000Y-74677062D01*
X164358000Y-74420938D01*
X164355844Y-74404562D01*
X164289554Y-74157165D01*
X164283233Y-74141905D01*
X164155171Y-73920095D01*
X164145116Y-73906991D01*
X163964009Y-73725884D01*
X163950905Y-73715829D01*
X163729095Y-73587767D01*
X163713835Y-73581446D01*
X163466438Y-73515156D01*
X163450062Y-73513000D01*
X163193938Y-73513000D01*
X163177562Y-73515156D01*
X162930165Y-73581446D01*
X162914905Y-73587767D01*
X162784598Y-73663000D01*
X140561263Y-73663000D01*
X140542631Y-73658784D01*
X140524735Y-73657344D01*
X140433575Y-73663000D01*
X140402948Y-73663000D01*
X140394007Y-73663637D01*
X140371605Y-73666845D01*
X140289535Y-73671937D01*
X140271956Y-73675577D01*
X140246524Y-73684758D01*
X140219751Y-73688592D01*
X140202521Y-73693631D01*
X140127651Y-73727671D01*
X140050122Y-73755660D01*
X140033956Y-73764320D01*
X140013090Y-73779759D01*
X139988001Y-73791167D01*
X139972876Y-73800839D01*
X139901571Y-73862280D01*
X139882869Y-73876119D01*
X139875785Y-73882222D01*
X139859334Y-73898674D01*
X139794355Y-73954663D01*
X139782553Y-73968192D01*
X139769172Y-73988836D01*
X127708209Y-86049800D01*
X123535083Y-86049800D01*
X123461274Y-86123609D01*
X123461274Y-86684800D01*
X123316000Y-86684800D01*
X123316000Y-80939000D01*
X124467753Y-80939000D01*
X124532821Y-80941727D01*
X124542174Y-80941425D01*
X124553248Y-80940240D01*
X124553624Y-80940199D01*
X124602914Y-80934626D01*
X124610883Y-80933145D01*
X124615022Y-80933102D01*
X124632764Y-80930371D01*
X124698773Y-80910315D01*
X124765569Y-80892916D01*
X124782126Y-80885973D01*
X124785614Y-80883885D01*
X124793782Y-80880725D01*
X124803843Y-80875947D01*
X124804186Y-80875783D01*
X124888521Y-80835105D01*
X124896299Y-80830645D01*
X124925448Y-80811057D01*
X124960976Y-80793498D01*
X124975781Y-80783342D01*
X125000447Y-80760660D01*
X125028248Y-80741979D01*
X125041580Y-80729955D01*
X125066941Y-80699516D01*
X125092943Y-80675605D01*
X125099342Y-80668779D01*
X125106335Y-80660110D01*
X125106573Y-80659814D01*
X125164924Y-80586588D01*
X125169998Y-80579197D01*
X125187771Y-80548905D01*
X125212166Y-80517681D01*
X125221102Y-80502110D01*
X125233493Y-80470972D01*
X125250444Y-80442079D01*
X125257242Y-80425462D01*
X125266891Y-80387045D01*
X125279954Y-80354221D01*
X125282760Y-80345294D01*
X125285302Y-80334450D01*
X125285387Y-80334082D01*
X125306211Y-80242795D01*
X125307579Y-80233935D01*
X125312746Y-80171085D01*
X125315307Y-80153950D01*
X125316000Y-80144625D01*
X125316000Y-80131511D01*
X125320606Y-80075495D01*
X125319526Y-80057575D01*
X125316000Y-80040397D01*
X125316000Y-78819247D01*
X125318727Y-78754179D01*
X125318425Y-78744827D01*
X125317240Y-78733752D01*
X125317199Y-78733376D01*
X125311626Y-78684085D01*
X125310145Y-78676115D01*
X125310102Y-78671978D01*
X125307371Y-78654236D01*
X125287306Y-78588198D01*
X125269915Y-78521431D01*
X125262972Y-78504875D01*
X125260888Y-78501393D01*
X125257725Y-78493218D01*
X125252947Y-78483157D01*
X125252783Y-78482814D01*
X125212105Y-78398479D01*
X125207645Y-78390701D01*
X125188057Y-78361552D01*
X125170498Y-78326024D01*
X125160342Y-78311219D01*
X125137660Y-78286553D01*
X125118979Y-78258752D01*
X125106954Y-78245420D01*
X125076517Y-78220061D01*
X125052605Y-78194057D01*
X125045779Y-78187658D01*
X125037110Y-78180665D01*
X125036814Y-78180427D01*
X124963588Y-78122076D01*
X124956197Y-78117002D01*
X124925905Y-78099229D01*
X124894681Y-78074834D01*
X124879110Y-78065898D01*
X124847972Y-78053507D01*
X124819079Y-78036556D01*
X124802462Y-78029758D01*
X124764045Y-78020109D01*
X124731221Y-78007046D01*
X124722294Y-78004240D01*
X124711450Y-78001698D01*
X124711082Y-78001613D01*
X124619795Y-77980789D01*
X124610935Y-77979421D01*
X124548085Y-77974254D01*
X124530950Y-77971693D01*
X124521625Y-77971000D01*
X124508511Y-77971000D01*
X124452495Y-77966394D01*
X124434575Y-77967474D01*
X124417397Y-77971000D01*
X123316000Y-77971000D01*
X123316000Y-67185054D01*
X123316698Y-67181250D01*
X123317892Y-67170176D01*
X123317932Y-67169791D01*
X123331816Y-67033115D01*
X123353421Y-66964170D01*
X123388449Y-66900978D01*
X123435471Y-66846117D01*
X123492561Y-66801834D01*
X123557388Y-66769935D01*
X123634939Y-66749735D01*
X123735512Y-66741996D01*
X123744379Y-66740674D01*
X123751899Y-66739000D01*
X144348000Y-66739000D01*
X144348000Y-66957889D01*
%TO.N,5V*%
G36*
X127557300Y-88248925D02*
G01*
X124253300Y-89546925D01*
X124253300Y-87190800D01*
X127557300Y-87190800D01*
X127557300Y-88248925D01*
G37*
X127557300Y-88248925D02*
X124253300Y-89546925D01*
X124253300Y-87190800D01*
X127557300Y-87190800D01*
X127557300Y-88248925D01*
%TD*%
M02*
