M48
; DRILL file {KiCad (5.99.0-1734-gfc9c75f9e)} date Monday, June 08, 2020 at 10:25:11 PM
; FORMAT={-:-/ absolute / inch / decimal}
; #@! TF.CreationDate,2020-06-08T22:25:11+02:00
; #@! TF.GenerationSoftware,Kicad,Pcbnew,(5.99.0-1734-gfc9c75f9e)
; #@! TF.FileFunction,Plated,1,2,PTH
FMAT,2
INCH
T1C0.0157
T2C0.0236
%
G90
G05
T1
X4.91Y-2.695
X4.91Y-2.88
X4.95Y-3.45
X4.95Y-3.485
X4.99Y-3.45
X5.085Y-3.245
X5.105Y-2.69
X5.165Y-3.165
X5.28Y-3.055
X5.34Y-2.69
X5.415Y-2.93
X5.4323Y-3.4834
X5.5211Y-3.2938
X5.55Y-2.685
X5.5707Y-3.2849
X5.9581Y-3.022
X6.0733Y-2.9694
X6.0798Y-3.0165
X6.243Y-3.2507
X6.3069Y-3.1339
X6.33Y-3.48
X6.3394Y-3.1692
X6.3449Y-3.2606
X6.355Y-2.85
X6.43Y-2.935
X6.4334Y-3.0669
X6.5186Y-2.9745
X6.6705Y-2.9206
X6.76Y-2.675
X6.76Y-2.8
X6.765Y-2.935
X6.765Y-3.21
X6.765Y-3.34
T2
X4.9186Y-3.5593
X4.9776Y-3.5593
X5.0367Y-3.5593
X5.0957Y-3.5593
X5.1548Y-3.5593
X5.2139Y-3.5593
X5.2729Y-3.5593
X5.332Y-3.5593
X5.391Y-3.5593
X5.4501Y-3.5593
X5.5091Y-3.5593
X5.5682Y-3.5593
X5.6272Y-3.5593
X5.6863Y-3.5593
X5.7454Y-3.5593
X5.8044Y-3.5593
X5.8635Y-3.5593
X5.9225Y-3.5593
X5.9816Y-3.5593
X6.0406Y-3.5593
X6.0997Y-3.5593
X6.1587Y-3.5593
X6.2178Y-3.5593
X6.2769Y-3.5593
X6.3359Y-3.5593
X6.395Y-3.5593
X6.454Y-3.5593
X6.5131Y-3.5593
X6.5721Y-3.5593
X6.6312Y-3.5593
X6.6902Y-3.5593
X6.7493Y-3.5593
T0
M30
