%TF.GenerationSoftware,KiCad,Pcbnew,(5.99.0-1734-gfc9c75f9e)*%
%TF.CreationDate,2020-06-08T22:25:13+02:00*%
%TF.ProjectId,poldet32k-v2-autorouted,706f6c64-6574-4333-926b-2d76322d6175,rev?*%
%TF.SameCoordinates,Original*%
%TF.FileFunction,Profile,NP*%
%FSLAX46Y46*%
G04 Gerber Fmt 4.6, Leading zero omitted, Abs format (unit mm)*
G04 Created by KiCad (PCBNEW (5.99.0-1734-gfc9c75f9e)) date 2020-06-08 22:25:13*
%MOMM*%
%LPD*%
G01*
G04 APERTURE LIST*
%TA.AperFunction,Profile*%
%ADD10C,0.050000*%
%TD*%
G04 APERTURE END LIST*
D10*
X172832000Y-88105000D02*
G75*
G02*
X173032000Y-87905000I200000J0D01*
G01*
X173682000Y-87405000D02*
G75*
G02*
X173182000Y-87905000I-500000J0D01*
G01*
X173182000Y-87905000D02*
X173032000Y-87905000D01*
X123332000Y-87905000D02*
G75*
G02*
X123532000Y-88105000I0J-200000D01*
G01*
X123182000Y-87905000D02*
G75*
G02*
X122682000Y-87405000I0J500000D01*
G01*
X151382000Y-66605000D02*
G75*
G02*
X151882000Y-66105000I500000J0D01*
G01*
X144482000Y-66105000D02*
G75*
G02*
X144982000Y-66605000I0J-500000D01*
G01*
X151382000Y-67005000D02*
G75*
G02*
X144982000Y-67005000I-3200000J0D01*
G01*
X123682000Y-66105000D02*
X144482000Y-66105000D01*
X172682000Y-66105000D02*
X151882000Y-66105000D01*
X151382000Y-66605000D02*
X151382000Y-67005000D01*
X144982000Y-66605000D02*
X144982000Y-67005000D01*
X122682000Y-78105000D02*
X122682000Y-67105000D01*
X124482000Y-78605000D02*
G75*
G02*
X124682000Y-78805000I0J-200000D01*
G01*
X171682000Y-77105000D02*
X171682000Y-78405000D01*
X173182000Y-78605000D02*
X171882000Y-78605000D01*
X173682000Y-76405000D02*
X173682000Y-67105000D01*
X123532000Y-95305000D02*
X123532000Y-88105000D01*
X122682000Y-87405000D02*
X122682000Y-80805000D01*
X171882000Y-78605000D02*
G75*
G02*
X171682000Y-78405000I0J200000D01*
G01*
X172682000Y-66105000D02*
G75*
G02*
X173682000Y-67105000I0J-1000000D01*
G01*
X124682000Y-78805000D02*
X124682000Y-80105000D01*
X124482000Y-80305000D02*
X123182000Y-80305000D01*
X171332000Y-96805000D02*
X125032000Y-96805000D01*
X122682000Y-80805000D02*
G75*
G02*
X123182000Y-80305000I500000J0D01*
G01*
X172832000Y-95305000D02*
X172832000Y-88105000D01*
X123332000Y-87905000D02*
X123182000Y-87905000D01*
X122682000Y-67105000D02*
G75*
G02*
X123682000Y-66105000I1000000J0D01*
G01*
X125032000Y-96805000D02*
G75*
G02*
X123532000Y-95305000I0J1500000D01*
G01*
X172832000Y-95305000D02*
G75*
G02*
X171332000Y-96805000I-1500000J0D01*
G01*
X123182000Y-78605000D02*
X124482000Y-78605000D01*
X123182000Y-78605000D02*
G75*
G02*
X122682000Y-78105000I0J500000D01*
G01*
X171682000Y-77105000D02*
G75*
G02*
X171882000Y-76905000I200000J0D01*
G01*
X173682000Y-76405000D02*
G75*
G02*
X173182000Y-76905000I-500000J0D01*
G01*
X173182000Y-78605000D02*
G75*
G02*
X173682000Y-79105000I0J-500000D01*
G01*
X124682000Y-80105000D02*
G75*
G02*
X124482000Y-80305000I-200000J0D01*
G01*
X173682000Y-87405000D02*
X173682000Y-79105000D01*
X171882000Y-76905000D02*
X173182000Y-76905000D01*
M02*
