%TF.GenerationSoftware,KiCad,Pcbnew,(5.99.0-1734-gfc9c75f9e)*%
%TF.CreationDate,2020-06-08T22:25:13+02:00*%
%TF.ProjectId,poldet32k-v2-autorouted,706f6c64-6574-4333-926b-2d76322d6175,rev?*%
%TF.SameCoordinates,Original*%
%TF.FileFunction,Legend,Top*%
%TF.FilePolarity,Positive*%
%FSLAX46Y46*%
G04 Gerber Fmt 4.6, Leading zero omitted, Abs format (unit mm)*
G04 Created by KiCad (PCBNEW (5.99.0-1734-gfc9c75f9e)) date 2020-06-08 22:25:13*
%MOMM*%
%LPD*%
G01*
G04 APERTURE LIST*
%ADD10C,0.200000*%
%ADD11C,0.300000*%
%ADD12C,0.120000*%
%ADD13C,0.077216*%
%ADD14C,0.135128*%
%ADD15C,0.096520*%
%ADD16C,0.150000*%
%ADD17C,0.127000*%
%ADD18C,0.609600*%
%ADD19C,0.203200*%
G04 APERTURE END LIST*
D10*
X158695795Y-77452104D02*
X159191033Y-77452104D01*
X158924366Y-77756866D01*
X159038652Y-77756866D01*
X159114842Y-77794961D01*
X159152938Y-77833057D01*
X159191033Y-77909247D01*
X159191033Y-78099723D01*
X159152938Y-78175914D01*
X159114842Y-78214009D01*
X159038652Y-78252104D01*
X158810080Y-78252104D01*
X158733890Y-78214009D01*
X158695795Y-78175914D01*
X159495795Y-77528295D02*
X159533890Y-77490200D01*
X159610080Y-77452104D01*
X159800557Y-77452104D01*
X159876747Y-77490200D01*
X159914842Y-77528295D01*
X159952938Y-77604485D01*
X159952938Y-77680676D01*
X159914842Y-77794961D01*
X159457700Y-78252104D01*
X159952938Y-78252104D01*
X160295795Y-78252104D02*
X160295795Y-77452104D01*
X160371985Y-77947342D02*
X160600557Y-78252104D01*
X160600557Y-77718771D02*
X160295795Y-78023533D01*
X161514842Y-77414009D02*
X160829128Y-78442580D01*
X162162461Y-77452104D02*
X161781509Y-77452104D01*
X161743414Y-77833057D01*
X161781509Y-77794961D01*
X161857700Y-77756866D01*
X162048176Y-77756866D01*
X162124366Y-77794961D01*
X162162461Y-77833057D01*
X162200557Y-77909247D01*
X162200557Y-78099723D01*
X162162461Y-78175914D01*
X162124366Y-78214009D01*
X162048176Y-78252104D01*
X161857700Y-78252104D01*
X161781509Y-78214009D01*
X161743414Y-78175914D01*
X162962461Y-78252104D02*
X162505319Y-78252104D01*
X162733890Y-78252104D02*
X162733890Y-77452104D01*
X162657700Y-77566390D01*
X162581509Y-77642580D01*
X162505319Y-77680676D01*
X163267223Y-77528295D02*
X163305319Y-77490200D01*
X163381509Y-77452104D01*
X163571985Y-77452104D01*
X163648176Y-77490200D01*
X163686271Y-77528295D01*
X163724366Y-77604485D01*
X163724366Y-77680676D01*
X163686271Y-77794961D01*
X163229128Y-78252104D01*
X163724366Y-78252104D01*
X164067223Y-78252104D02*
X164067223Y-77452104D01*
X164143414Y-77947342D02*
X164371985Y-78252104D01*
X164371985Y-77718771D02*
X164067223Y-78023533D01*
X164638652Y-78252104D02*
X165057700Y-77718771D01*
X164638652Y-77718771D02*
X165057700Y-78252104D01*
X165476747Y-77794961D02*
X165400557Y-77756866D01*
X165362461Y-77718771D01*
X165324366Y-77642580D01*
X165324366Y-77604485D01*
X165362461Y-77528295D01*
X165400557Y-77490200D01*
X165476747Y-77452104D01*
X165629128Y-77452104D01*
X165705319Y-77490200D01*
X165743414Y-77528295D01*
X165781509Y-77604485D01*
X165781509Y-77642580D01*
X165743414Y-77718771D01*
X165705319Y-77756866D01*
X165629128Y-77794961D01*
X165476747Y-77794961D01*
X165400557Y-77833057D01*
X165362461Y-77871152D01*
X165324366Y-77947342D01*
X165324366Y-78099723D01*
X165362461Y-78175914D01*
X165400557Y-78214009D01*
X165476747Y-78252104D01*
X165629128Y-78252104D01*
X165705319Y-78214009D01*
X165743414Y-78175914D01*
X165781509Y-78099723D01*
X165781509Y-77947342D01*
X165743414Y-77871152D01*
X165705319Y-77833057D01*
X165629128Y-77794961D01*
X159667223Y-79540104D02*
X159667223Y-78740104D01*
X159971985Y-78740104D01*
X160048176Y-78778200D01*
X160086271Y-78816295D01*
X160124366Y-78892485D01*
X160124366Y-79006771D01*
X160086271Y-79082961D01*
X160048176Y-79121057D01*
X159971985Y-79159152D01*
X159667223Y-79159152D01*
X160848176Y-79540104D02*
X160467223Y-79540104D01*
X160467223Y-78740104D01*
X161571985Y-79463914D02*
X161533890Y-79502009D01*
X161419604Y-79540104D01*
X161343414Y-79540104D01*
X161229128Y-79502009D01*
X161152938Y-79425819D01*
X161114842Y-79349628D01*
X161076747Y-79197247D01*
X161076747Y-79082961D01*
X161114842Y-78930580D01*
X161152938Y-78854390D01*
X161229128Y-78778200D01*
X161343414Y-78740104D01*
X161419604Y-78740104D01*
X161533890Y-78778200D01*
X161571985Y-78816295D01*
X162371985Y-79463914D02*
X162333890Y-79502009D01*
X162219604Y-79540104D01*
X162143414Y-79540104D01*
X162029128Y-79502009D01*
X161952938Y-79425819D01*
X161914842Y-79349628D01*
X161876747Y-79197247D01*
X161876747Y-79082961D01*
X161914842Y-78930580D01*
X161952938Y-78854390D01*
X162029128Y-78778200D01*
X162143414Y-78740104D01*
X162219604Y-78740104D01*
X162333890Y-78778200D01*
X162371985Y-78816295D01*
X162714842Y-79235342D02*
X163324366Y-79235342D01*
X163629128Y-78740104D02*
X164124366Y-78740104D01*
X163857700Y-79044866D01*
X163971985Y-79044866D01*
X164048176Y-79082961D01*
X164086271Y-79121057D01*
X164124366Y-79197247D01*
X164124366Y-79387723D01*
X164086271Y-79463914D01*
X164048176Y-79502009D01*
X163971985Y-79540104D01*
X163743414Y-79540104D01*
X163667223Y-79502009D01*
X163629128Y-79463914D01*
X164429128Y-78816295D02*
X164467223Y-78778200D01*
X164543414Y-78740104D01*
X164733890Y-78740104D01*
X164810080Y-78778200D01*
X164848176Y-78816295D01*
X164886271Y-78892485D01*
X164886271Y-78968676D01*
X164848176Y-79082961D01*
X164391033Y-79540104D01*
X164886271Y-79540104D01*
X161114842Y-80409057D02*
X160848176Y-80409057D01*
X160848176Y-80828104D02*
X160848176Y-80028104D01*
X161229128Y-80028104D01*
X161648176Y-80828104D02*
X161571985Y-80790009D01*
X161533890Y-80713819D01*
X161533890Y-80028104D01*
X162295795Y-80828104D02*
X162295795Y-80409057D01*
X162257700Y-80332866D01*
X162181509Y-80294771D01*
X162029128Y-80294771D01*
X161952938Y-80332866D01*
X162295795Y-80790009D02*
X162219604Y-80828104D01*
X162029128Y-80828104D01*
X161952938Y-80790009D01*
X161914842Y-80713819D01*
X161914842Y-80637628D01*
X161952938Y-80561438D01*
X162029128Y-80523342D01*
X162219604Y-80523342D01*
X162295795Y-80485247D01*
X162638652Y-80790009D02*
X162714842Y-80828104D01*
X162867223Y-80828104D01*
X162943414Y-80790009D01*
X162981509Y-80713819D01*
X162981509Y-80675723D01*
X162943414Y-80599533D01*
X162867223Y-80561438D01*
X162752938Y-80561438D01*
X162676747Y-80523342D01*
X162638652Y-80447152D01*
X162638652Y-80409057D01*
X162676747Y-80332866D01*
X162752938Y-80294771D01*
X162867223Y-80294771D01*
X162943414Y-80332866D01*
X163324366Y-80828104D02*
X163324366Y-80028104D01*
X163667223Y-80828104D02*
X163667223Y-80409057D01*
X163629128Y-80332866D01*
X163552938Y-80294771D01*
X163438652Y-80294771D01*
X163362461Y-80332866D01*
X163324366Y-80370961D01*
D11*
X125111142Y-69790571D02*
X125611142Y-71290571D01*
X126111142Y-69790571D01*
X126611142Y-70719142D02*
X127754000Y-70719142D01*
X129254000Y-71290571D02*
X128396857Y-71290571D01*
X128825428Y-71290571D02*
X128825428Y-69790571D01*
X128682571Y-70004857D01*
X128539714Y-70147714D01*
X128396857Y-70219142D01*
X128791571Y-88054714D02*
X128648714Y-87983285D01*
X128363000Y-87983285D01*
X128220142Y-88054714D01*
X128077285Y-88197571D01*
X128005857Y-88340428D01*
X128005857Y-88626142D01*
X128077285Y-88769000D01*
X128220142Y-88911857D01*
X128363000Y-88983285D01*
X128648714Y-88983285D01*
X128791571Y-88911857D01*
X128505857Y-87483285D02*
X128148714Y-87554714D01*
X127791571Y-87769000D01*
X127577285Y-88126142D01*
X127505857Y-88483285D01*
X127577285Y-88840428D01*
X127791571Y-89197571D01*
X128148714Y-89411857D01*
X128505857Y-89483285D01*
X128863000Y-89411857D01*
X129220142Y-89197571D01*
X129434428Y-88840428D01*
X129505857Y-88483285D01*
X129434428Y-88126142D01*
X129220142Y-87769000D01*
X128863000Y-87554714D01*
X128505857Y-87483285D01*
X131220142Y-87840428D02*
X131291571Y-87769000D01*
X131434428Y-87697571D01*
X131791571Y-87697571D01*
X131934428Y-87769000D01*
X132005857Y-87840428D01*
X132077285Y-87983285D01*
X132077285Y-88126142D01*
X132005857Y-88340428D01*
X131148714Y-89197571D01*
X132077285Y-89197571D01*
X133005857Y-87697571D02*
X133148714Y-87697571D01*
X133291571Y-87769000D01*
X133363000Y-87840428D01*
X133434428Y-87983285D01*
X133505857Y-88269000D01*
X133505857Y-88626142D01*
X133434428Y-88911857D01*
X133363000Y-89054714D01*
X133291571Y-89126142D01*
X133148714Y-89197571D01*
X133005857Y-89197571D01*
X132863000Y-89126142D01*
X132791571Y-89054714D01*
X132720142Y-88911857D01*
X132648714Y-88626142D01*
X132648714Y-88269000D01*
X132720142Y-87983285D01*
X132791571Y-87840428D01*
X132863000Y-87769000D01*
X133005857Y-87697571D01*
X134077285Y-87840428D02*
X134148714Y-87769000D01*
X134291571Y-87697571D01*
X134648714Y-87697571D01*
X134791571Y-87769000D01*
X134863000Y-87840428D01*
X134934428Y-87983285D01*
X134934428Y-88126142D01*
X134863000Y-88340428D01*
X134005857Y-89197571D01*
X134934428Y-89197571D01*
X135863000Y-87697571D02*
X136005857Y-87697571D01*
X136148714Y-87769000D01*
X136220142Y-87840428D01*
X136291571Y-87983285D01*
X136363000Y-88269000D01*
X136363000Y-88626142D01*
X136291571Y-88911857D01*
X136220142Y-89054714D01*
X136148714Y-89126142D01*
X136005857Y-89197571D01*
X135863000Y-89197571D01*
X135720142Y-89126142D01*
X135648714Y-89054714D01*
X135577285Y-88911857D01*
X135505857Y-88626142D01*
X135505857Y-88269000D01*
X135577285Y-87983285D01*
X135648714Y-87840428D01*
X135720142Y-87769000D01*
X135863000Y-87697571D01*
X138148714Y-89197571D02*
X138148714Y-87697571D01*
X138720142Y-87697571D01*
X138863000Y-87769000D01*
X138934428Y-87840428D01*
X139005857Y-87983285D01*
X139005857Y-88197571D01*
X138934428Y-88340428D01*
X138863000Y-88411857D01*
X138720142Y-88483285D01*
X138148714Y-88483285D01*
X139863000Y-89197571D02*
X139720142Y-89126142D01*
X139648714Y-89054714D01*
X139577285Y-88911857D01*
X139577285Y-88483285D01*
X139648714Y-88340428D01*
X139720142Y-88269000D01*
X139863000Y-88197571D01*
X140077285Y-88197571D01*
X140220142Y-88269000D01*
X140291571Y-88340428D01*
X140363000Y-88483285D01*
X140363000Y-88911857D01*
X140291571Y-89054714D01*
X140220142Y-89126142D01*
X140077285Y-89197571D01*
X139863000Y-89197571D01*
X141220142Y-89197571D02*
X141077285Y-89126142D01*
X141005857Y-88983285D01*
X141005857Y-87697571D01*
X142434428Y-89197571D02*
X142434428Y-87697571D01*
X142434428Y-89126142D02*
X142291571Y-89197571D01*
X142005857Y-89197571D01*
X141863000Y-89126142D01*
X141791571Y-89054714D01*
X141720142Y-88911857D01*
X141720142Y-88483285D01*
X141791571Y-88340428D01*
X141863000Y-88269000D01*
X142005857Y-88197571D01*
X142291571Y-88197571D01*
X142434428Y-88269000D01*
X143720142Y-89126142D02*
X143577285Y-89197571D01*
X143291571Y-89197571D01*
X143148714Y-89126142D01*
X143077285Y-88983285D01*
X143077285Y-88411857D01*
X143148714Y-88269000D01*
X143291571Y-88197571D01*
X143577285Y-88197571D01*
X143720142Y-88269000D01*
X143791571Y-88411857D01*
X143791571Y-88554714D01*
X143077285Y-88697571D01*
X144220142Y-88197571D02*
X144791571Y-88197571D01*
X144434428Y-87697571D02*
X144434428Y-88983285D01*
X144505857Y-89126142D01*
X144648714Y-89197571D01*
X144791571Y-89197571D01*
X146434428Y-89197571D02*
X146434428Y-87697571D01*
X146791571Y-87697571D01*
X147005857Y-87769000D01*
X147148714Y-87911857D01*
X147220142Y-88054714D01*
X147291571Y-88340428D01*
X147291571Y-88554714D01*
X147220142Y-88840428D01*
X147148714Y-88983285D01*
X147005857Y-89126142D01*
X146791571Y-89197571D01*
X146434428Y-89197571D01*
X147934428Y-89197571D02*
X147934428Y-87697571D01*
X148434428Y-88769000D01*
X148934428Y-87697571D01*
X148934428Y-89197571D01*
X150434428Y-87769000D02*
X150291571Y-87697571D01*
X150077285Y-87697571D01*
X149863000Y-87769000D01*
X149720142Y-87911857D01*
X149648714Y-88054714D01*
X149577285Y-88340428D01*
X149577285Y-88554714D01*
X149648714Y-88840428D01*
X149720142Y-88983285D01*
X149863000Y-89126142D01*
X150077285Y-89197571D01*
X150220142Y-89197571D01*
X150434428Y-89126142D01*
X150505857Y-89054714D01*
X150505857Y-88554714D01*
X150220142Y-88554714D01*
X151148714Y-88626142D02*
X152291571Y-88626142D01*
X152863000Y-87697571D02*
X153791571Y-87697571D01*
X153291571Y-88269000D01*
X153505857Y-88269000D01*
X153648714Y-88340428D01*
X153720142Y-88411857D01*
X153791571Y-88554714D01*
X153791571Y-88911857D01*
X153720142Y-89054714D01*
X153648714Y-89126142D01*
X153505857Y-89197571D01*
X153077285Y-89197571D01*
X152934428Y-89126142D01*
X152863000Y-89054714D01*
X154363000Y-87840428D02*
X154434428Y-87769000D01*
X154577285Y-87697571D01*
X154934428Y-87697571D01*
X155077285Y-87769000D01*
X155148714Y-87840428D01*
X155220142Y-87983285D01*
X155220142Y-88126142D01*
X155148714Y-88340428D01*
X154291571Y-89197571D01*
X155220142Y-89197571D01*
X155863000Y-89197571D02*
X155863000Y-87697571D01*
X156720142Y-89197571D02*
X156077285Y-88340428D01*
X156720142Y-87697571D02*
X155863000Y-88554714D01*
D12*
X123266333Y-86753704D02*
X123533000Y-87553704D01*
X123799666Y-86753704D01*
X124066333Y-87553704D02*
X124066333Y-86753704D01*
X124256809Y-86753704D01*
X124371095Y-86791800D01*
X124447285Y-86867990D01*
X124485380Y-86944180D01*
X124523476Y-87096561D01*
X124523476Y-87210847D01*
X124485380Y-87363228D01*
X124447285Y-87439419D01*
X124371095Y-87515609D01*
X124256809Y-87553704D01*
X124066333Y-87553704D01*
X124866333Y-87553704D02*
X124866333Y-86753704D01*
X125056809Y-86753704D01*
X125171095Y-86791800D01*
X125247285Y-86867990D01*
X125285380Y-86944180D01*
X125323476Y-87096561D01*
X125323476Y-87210847D01*
X125285380Y-87363228D01*
X125247285Y-87439419D01*
X125171095Y-87515609D01*
X125056809Y-87553704D01*
X124866333Y-87553704D01*
X171348476Y-86722000D02*
X171272285Y-86683904D01*
X171158000Y-86683904D01*
X171043714Y-86722000D01*
X170967523Y-86798190D01*
X170929428Y-86874380D01*
X170891333Y-87026761D01*
X170891333Y-87141047D01*
X170929428Y-87293428D01*
X170967523Y-87369619D01*
X171043714Y-87445809D01*
X171158000Y-87483904D01*
X171234190Y-87483904D01*
X171348476Y-87445809D01*
X171386571Y-87407714D01*
X171386571Y-87141047D01*
X171234190Y-87141047D01*
X171729428Y-87483904D02*
X171729428Y-86683904D01*
X172186571Y-87483904D01*
X172186571Y-86683904D01*
X172567523Y-87483904D02*
X172567523Y-86683904D01*
X172758000Y-86683904D01*
X172872285Y-86722000D01*
X172948476Y-86798190D01*
X172986571Y-86874380D01*
X173024666Y-87026761D01*
X173024666Y-87141047D01*
X172986571Y-87293428D01*
X172948476Y-87369619D01*
X172872285Y-87445809D01*
X172758000Y-87483904D01*
X172567523Y-87483904D01*
D13*
%TO.C,C2*%
X157041542Y-69839114D02*
X156995580Y-69885076D01*
X156857695Y-69931038D01*
X156765771Y-69931038D01*
X156627885Y-69885076D01*
X156535961Y-69793152D01*
X156489999Y-69701228D01*
X156444038Y-69517380D01*
X156444038Y-69379495D01*
X156489999Y-69195647D01*
X156535961Y-69103723D01*
X156627885Y-69011800D01*
X156765771Y-68965838D01*
X156857695Y-68965838D01*
X156995580Y-69011800D01*
X157041542Y-69057761D01*
X157409238Y-69057761D02*
X157455199Y-69011800D01*
X157547123Y-68965838D01*
X157776933Y-68965838D01*
X157868857Y-69011800D01*
X157914818Y-69057761D01*
X157960780Y-69149685D01*
X157960780Y-69241609D01*
X157914818Y-69379495D01*
X157363276Y-69931038D01*
X157960780Y-69931038D01*
X158959847Y-67568838D02*
X159051771Y-67568838D01*
X159143695Y-67614800D01*
X159189657Y-67660761D01*
X159235618Y-67752685D01*
X159281580Y-67936533D01*
X159281580Y-68166342D01*
X159235618Y-68350190D01*
X159189657Y-68442114D01*
X159143695Y-68488076D01*
X159051771Y-68534038D01*
X158959847Y-68534038D01*
X158867923Y-68488076D01*
X158821961Y-68442114D01*
X158775999Y-68350190D01*
X158730038Y-68166342D01*
X158730038Y-67936533D01*
X158775999Y-67752685D01*
X158821961Y-67660761D01*
X158867923Y-67614800D01*
X158959847Y-67568838D01*
X159695238Y-68442114D02*
X159741199Y-68488076D01*
X159695238Y-68534038D01*
X159649276Y-68488076D01*
X159695238Y-68442114D01*
X159695238Y-68534038D01*
X160660438Y-68534038D02*
X160108895Y-68534038D01*
X160384666Y-68534038D02*
X160384666Y-67568838D01*
X160292742Y-67706723D01*
X160200818Y-67798647D01*
X160108895Y-67844609D01*
X161487752Y-67890571D02*
X161487752Y-68534038D01*
X161074095Y-67890571D02*
X161074095Y-68396152D01*
X161120057Y-68488076D01*
X161211980Y-68534038D01*
X161349866Y-68534038D01*
X161441790Y-68488076D01*
X161487752Y-68442114D01*
X162269104Y-68028457D02*
X161947371Y-68028457D01*
X161947371Y-68534038D02*
X161947371Y-67568838D01*
X162406990Y-67568838D01*
%TO.C,C1*%
X126529114Y-81233076D02*
X126575076Y-81279038D01*
X126621038Y-81416923D01*
X126621038Y-81508847D01*
X126575076Y-81646733D01*
X126483152Y-81738657D01*
X126391228Y-81784618D01*
X126207380Y-81830580D01*
X126069495Y-81830580D01*
X125885647Y-81784618D01*
X125793723Y-81738657D01*
X125701800Y-81646733D01*
X125655838Y-81508847D01*
X125655838Y-81416923D01*
X125701800Y-81279038D01*
X125747761Y-81233076D01*
X126621038Y-80313838D02*
X126621038Y-80865380D01*
X126621038Y-80589609D02*
X125655838Y-80589609D01*
X125793723Y-80681533D01*
X125885647Y-80773457D01*
X125931609Y-80865380D01*
X123750838Y-85874018D02*
X123750838Y-85782095D01*
X123796800Y-85690171D01*
X123842761Y-85644209D01*
X123934685Y-85598247D01*
X124118533Y-85552285D01*
X124348342Y-85552285D01*
X124532190Y-85598247D01*
X124624114Y-85644209D01*
X124670076Y-85690171D01*
X124716038Y-85782095D01*
X124716038Y-85874018D01*
X124670076Y-85965942D01*
X124624114Y-86011904D01*
X124532190Y-86057866D01*
X124348342Y-86103828D01*
X124118533Y-86103828D01*
X123934685Y-86057866D01*
X123842761Y-86011904D01*
X123796800Y-85965942D01*
X123750838Y-85874018D01*
X124624114Y-85138628D02*
X124670076Y-85092666D01*
X124716038Y-85138628D01*
X124670076Y-85184590D01*
X124624114Y-85138628D01*
X124716038Y-85138628D01*
X124716038Y-84173428D02*
X124716038Y-84724971D01*
X124716038Y-84449199D02*
X123750838Y-84449199D01*
X123888723Y-84541123D01*
X123980647Y-84633047D01*
X124026609Y-84724971D01*
X124072571Y-83346114D02*
X124716038Y-83346114D01*
X124072571Y-83759771D02*
X124578152Y-83759771D01*
X124670076Y-83713809D01*
X124716038Y-83621885D01*
X124716038Y-83483999D01*
X124670076Y-83392076D01*
X124624114Y-83346114D01*
X124210457Y-82564761D02*
X124210457Y-82886495D01*
X124716038Y-82886495D02*
X123750838Y-82886495D01*
X123750838Y-82426876D01*
D14*
%TO.C,U1*%
X167748999Y-71128466D02*
X167748999Y-72495833D01*
X167829433Y-72656700D01*
X167909866Y-72737133D01*
X168070733Y-72817566D01*
X168392466Y-72817566D01*
X168553333Y-72737133D01*
X168633766Y-72656700D01*
X168714199Y-72495833D01*
X168714199Y-71128466D01*
X170403299Y-72817566D02*
X169438099Y-72817566D01*
X169920699Y-72817566D02*
X169920699Y-71128466D01*
X169759833Y-71369766D01*
X169598966Y-71530633D01*
X169438099Y-71611066D01*
D15*
%TO.C,R1*%
X167744176Y-69931038D02*
X167422442Y-69471419D01*
X167192633Y-69931038D02*
X167192633Y-68965838D01*
X167560328Y-68965838D01*
X167652252Y-69011800D01*
X167698214Y-69057761D01*
X167744176Y-69149685D01*
X167744176Y-69287571D01*
X167698214Y-69379495D01*
X167652252Y-69425457D01*
X167560328Y-69471419D01*
X167192633Y-69471419D01*
X168663414Y-69931038D02*
X168111871Y-69931038D01*
X168387642Y-69931038D02*
X168387642Y-68965838D01*
X168295719Y-69103723D01*
X168203795Y-69195647D01*
X168111871Y-69241609D01*
X163431262Y-68419666D02*
X163031262Y-68419666D01*
X163231262Y-68419666D02*
X163231262Y-67719666D01*
X163164595Y-67819666D01*
X163097928Y-67886333D01*
X163031262Y-67919666D01*
X163864595Y-67719666D02*
X163931262Y-67719666D01*
X163997928Y-67753000D01*
X164031262Y-67786333D01*
X164064595Y-67853000D01*
X164097928Y-67986333D01*
X164097928Y-68153000D01*
X164064595Y-68286333D01*
X164031262Y-68353000D01*
X163997928Y-68386333D01*
X163931262Y-68419666D01*
X163864595Y-68419666D01*
X163797928Y-68386333D01*
X163764595Y-68353000D01*
X163731262Y-68286333D01*
X163697928Y-68153000D01*
X163697928Y-67986333D01*
X163731262Y-67853000D01*
X163764595Y-67786333D01*
X163797928Y-67753000D01*
X163864595Y-67719666D01*
X164397928Y-68419666D02*
X164397928Y-67719666D01*
X164797928Y-68419666D02*
X164497928Y-68019666D01*
X164797928Y-67719666D02*
X164397928Y-68119666D01*
X165097928Y-68153000D02*
X165631262Y-68153000D01*
X166264595Y-67953000D02*
X166264595Y-68419666D01*
X166097928Y-67686333D02*
X165931262Y-68186333D01*
X166364595Y-68186333D01*
X166564595Y-67719666D02*
X167031262Y-67719666D01*
X166731262Y-68419666D01*
X167297928Y-68419666D02*
X167297928Y-67719666D01*
X167697928Y-68419666D02*
X167397928Y-68019666D01*
X167697928Y-67719666D02*
X167297928Y-68119666D01*
D16*
%TO.C,J1*%
X171034380Y-88541904D02*
X171529619Y-88541904D01*
X171262952Y-88846666D01*
X171377238Y-88846666D01*
X171453428Y-88884761D01*
X171491523Y-88922857D01*
X171529619Y-88999047D01*
X171529619Y-89189523D01*
X171491523Y-89265714D01*
X171453428Y-89303809D01*
X171377238Y-89341904D01*
X171148666Y-89341904D01*
X171072476Y-89303809D01*
X171034380Y-89265714D01*
X171834380Y-88618095D02*
X171872476Y-88580000D01*
X171948666Y-88541904D01*
X172139142Y-88541904D01*
X172215333Y-88580000D01*
X172253428Y-88618095D01*
X172291523Y-88694285D01*
X172291523Y-88770476D01*
X172253428Y-88884761D01*
X171796285Y-89341904D01*
X172291523Y-89341904D01*
X124910571Y-89341904D02*
X124453428Y-89341904D01*
X124682000Y-89341904D02*
X124682000Y-88541904D01*
X124605809Y-88656190D01*
X124529619Y-88732380D01*
X124453428Y-88770476D01*
D17*
%TO.C,C2*%
X160524000Y-69198000D02*
X160524000Y-70248000D01*
X160024000Y-69198000D02*
X160024000Y-70248000D01*
%TO.C,C1*%
X126811000Y-84147800D02*
X125761000Y-84147800D01*
X126811000Y-84647800D02*
X125761000Y-84647800D01*
D18*
%TO.C,U1*%
X162352000Y-74348000D02*
G75*
G03*
X162352000Y-74348000I-300000J0D01*
G01*
D19*
X157282000Y-72318000D02*
X156442000Y-73158000D01*
D17*
%TO.C,R1*%
X165223000Y-70423000D02*
X164723000Y-70423000D01*
X165223000Y-69023000D02*
X164723000Y-69023000D01*
%TD*%
M02*
