%TF.GenerationSoftware,KiCad,Pcbnew,(5.99.0-1734-gfc9c75f9e)*%
%TF.CreationDate,2020-06-08T22:25:13+02:00*%
%TF.ProjectId,poldet32k-v2-autorouted,706f6c64-6574-4333-926b-2d76322d6175,rev?*%
%TF.SameCoordinates,Original*%
%TF.FileFunction,Soldermask,Bot*%
%TF.FilePolarity,Negative*%
%FSLAX46Y46*%
G04 Gerber Fmt 4.6, Leading zero omitted, Abs format (unit mm)*
G04 Created by KiCad (PCBNEW (5.99.0-1734-gfc9c75f9e)) date 2020-06-08 22:25:13*
%MOMM*%
%LPD*%
G01*
G04 APERTURE LIST*
%ADD10C,7.500000*%
%ADD11C,0.900000*%
G04 APERTURE END LIST*
%TO.C,J1*%
G36*
X170832000Y-97055000D02*
G01*
X170532000Y-97055000D01*
X170532000Y-91105000D01*
X170832000Y-91105000D01*
X170832000Y-97055000D01*
G37*
G36*
X169332000Y-97055000D02*
G01*
X169032000Y-97055000D01*
X169032000Y-91105000D01*
X169332000Y-91105000D01*
X169332000Y-97055000D01*
G37*
G36*
X167832000Y-97055000D02*
G01*
X167532000Y-97055000D01*
X167532000Y-91105000D01*
X167832000Y-91105000D01*
X167832000Y-97055000D01*
G37*
G36*
X166332000Y-97055000D02*
G01*
X166032000Y-97055000D01*
X166032000Y-91105000D01*
X166332000Y-91105000D01*
X166332000Y-97055000D01*
G37*
G36*
X164832000Y-97055000D02*
G01*
X164532000Y-97055000D01*
X164532000Y-91105000D01*
X164832000Y-91105000D01*
X164832000Y-97055000D01*
G37*
G36*
X163332000Y-97055000D02*
G01*
X163032000Y-97055000D01*
X163032000Y-91105000D01*
X163332000Y-91105000D01*
X163332000Y-97055000D01*
G37*
G36*
X161832000Y-97055000D02*
G01*
X161532000Y-97055000D01*
X161532000Y-91105000D01*
X161832000Y-91105000D01*
X161832000Y-97055000D01*
G37*
G36*
X160332000Y-97055000D02*
G01*
X160032000Y-97055000D01*
X160032000Y-91105000D01*
X160332000Y-91105000D01*
X160332000Y-97055000D01*
G37*
G36*
X158832000Y-97055000D02*
G01*
X158532000Y-97055000D01*
X158532000Y-91105000D01*
X158832000Y-91105000D01*
X158832000Y-97055000D01*
G37*
G36*
X157332000Y-97055000D02*
G01*
X157032000Y-97055000D01*
X157032000Y-91105000D01*
X157332000Y-91105000D01*
X157332000Y-97055000D01*
G37*
G36*
X155832000Y-97055000D02*
G01*
X155532000Y-97055000D01*
X155532000Y-91105000D01*
X155832000Y-91105000D01*
X155832000Y-97055000D01*
G37*
G36*
X154332000Y-97055000D02*
G01*
X154032000Y-97055000D01*
X154032000Y-91105000D01*
X154332000Y-91105000D01*
X154332000Y-97055000D01*
G37*
G36*
X152832000Y-97055000D02*
G01*
X152532000Y-97055000D01*
X152532000Y-91105000D01*
X152832000Y-91105000D01*
X152832000Y-97055000D01*
G37*
G36*
X151332000Y-97055000D02*
G01*
X151032000Y-97055000D01*
X151032000Y-91105000D01*
X151332000Y-91105000D01*
X151332000Y-97055000D01*
G37*
G36*
X149832000Y-97055000D02*
G01*
X149532000Y-97055000D01*
X149532000Y-91105000D01*
X149832000Y-91105000D01*
X149832000Y-97055000D01*
G37*
G36*
X148332000Y-97055000D02*
G01*
X148032000Y-97055000D01*
X148032000Y-91105000D01*
X148332000Y-91105000D01*
X148332000Y-97055000D01*
G37*
G36*
X146832000Y-97055000D02*
G01*
X146532000Y-97055000D01*
X146532000Y-91105000D01*
X146832000Y-91105000D01*
X146832000Y-97055000D01*
G37*
G36*
X145332000Y-97055000D02*
G01*
X145032000Y-97055000D01*
X145032000Y-91105000D01*
X145332000Y-91105000D01*
X145332000Y-97055000D01*
G37*
G36*
X143832000Y-97055000D02*
G01*
X143532000Y-97055000D01*
X143532000Y-91105000D01*
X143832000Y-91105000D01*
X143832000Y-97055000D01*
G37*
G36*
X142332000Y-97055000D02*
G01*
X142032000Y-97055000D01*
X142032000Y-91105000D01*
X142332000Y-91105000D01*
X142332000Y-97055000D01*
G37*
G36*
X140832000Y-97055000D02*
G01*
X140532000Y-97055000D01*
X140532000Y-91105000D01*
X140832000Y-91105000D01*
X140832000Y-97055000D01*
G37*
G36*
X139332000Y-97055000D02*
G01*
X139032000Y-97055000D01*
X139032000Y-91105000D01*
X139332000Y-91105000D01*
X139332000Y-97055000D01*
G37*
G36*
X137832000Y-97055000D02*
G01*
X137532000Y-97055000D01*
X137532000Y-91105000D01*
X137832000Y-91105000D01*
X137832000Y-97055000D01*
G37*
G36*
X136332000Y-97055000D02*
G01*
X136032000Y-97055000D01*
X136032000Y-91105000D01*
X136332000Y-91105000D01*
X136332000Y-97055000D01*
G37*
G36*
X134832000Y-97055000D02*
G01*
X134532000Y-97055000D01*
X134532000Y-91105000D01*
X134832000Y-91105000D01*
X134832000Y-97055000D01*
G37*
G36*
X133332000Y-97055000D02*
G01*
X133032000Y-97055000D01*
X133032000Y-91105000D01*
X133332000Y-91105000D01*
X133332000Y-97055000D01*
G37*
G36*
X131832000Y-97055000D02*
G01*
X131532000Y-97055000D01*
X131532000Y-91105000D01*
X131832000Y-91105000D01*
X131832000Y-97055000D01*
G37*
G36*
X130332000Y-97055000D02*
G01*
X130032000Y-97055000D01*
X130032000Y-91105000D01*
X130332000Y-91105000D01*
X130332000Y-97055000D01*
G37*
G36*
X128832000Y-97055000D02*
G01*
X128532000Y-97055000D01*
X128532000Y-91105000D01*
X128832000Y-91105000D01*
X128832000Y-97055000D01*
G37*
G36*
X127332000Y-97055000D02*
G01*
X127032000Y-97055000D01*
X127032000Y-91105000D01*
X127332000Y-91105000D01*
X127332000Y-97055000D01*
G37*
G36*
X125832000Y-97055000D02*
G01*
X125532000Y-97055000D01*
X125532000Y-91105000D01*
X125832000Y-91105000D01*
X125832000Y-97055000D01*
G37*
G36*
X124332000Y-97055000D02*
G01*
X123282000Y-97055000D01*
X123282000Y-91105000D01*
X124332000Y-91105000D01*
X124332000Y-97055000D01*
G37*
G36*
X173082000Y-97055000D02*
G01*
X172032000Y-97055000D01*
X172032000Y-91105000D01*
X173082000Y-91105000D01*
X173082000Y-97055000D01*
G37*
%TD*%
D10*
%TO.C,@HOLE0*%
X148243000Y-81118800D03*
%TD*%
D11*
%TO.C,J1*%
X169932000Y-90405000D03*
X168432000Y-90405000D03*
X166932000Y-90405000D03*
X165432000Y-90405000D03*
X163932000Y-90405000D03*
X162432000Y-90405000D03*
X160932000Y-90405000D03*
X159432000Y-90405000D03*
X157932000Y-90405000D03*
X156432000Y-90405000D03*
X154932000Y-90405000D03*
X153432000Y-90405000D03*
X151932000Y-90405000D03*
X150432000Y-90405000D03*
X148932000Y-90405000D03*
X147432000Y-90405000D03*
X145932000Y-90405000D03*
X144432000Y-90405000D03*
X142932000Y-90405000D03*
X141432000Y-90405000D03*
X139932000Y-90405000D03*
X138432000Y-90405000D03*
X136932000Y-90405000D03*
X135432000Y-90405000D03*
X133932000Y-90405000D03*
X132432000Y-90405000D03*
X130932000Y-90405000D03*
X129432000Y-90405000D03*
X127932000Y-90405000D03*
X171432000Y-90405000D03*
X124932000Y-90405000D03*
X126432000Y-90405000D03*
%TD*%
M02*
